/* XPM */
static char * nextmarked_xpm[] = {
"16 16 13 1",
" 	c None",
".	c #000000",
"+	c #79F479",
"@	c #7EFE7E",
"#	c #7CF97C",
"$	c #7EFD7E",
"%	c #7DFC7D",
"&	c #7FFF7F",
"*	c #73E873",
"=	c #7DFB7D",
"-	c #79F379",
";	c #72E672",
">	c #76EE76",
"   ..  ....     ",
"   .++......    ",
"   .@...  ...   ",
"   .#..$%  ..   ",
"   .&&&&@* ..   ",
"   .&&&&&....   ",
"   .&&&&=...    ",
"   .&&&-...&;.  ",
"   .&&&...&&..  ",
"   .&&$..&>..   ",
"   .&&@..&.     ",
"   .&&@..       ",
"   .&&@         ",
"   .&. ..       ",
"   ... ..       ",
"   ..  ..       "};
