/* XPM */
static char * prevmarked_xpm[] = {
"16 16 5 1",
" 	c None",
".	c #000000",
"+	c #7FFF7F",
"@	c #6DDC6D",
"#	c #6CD96C",
"     ....  ..   ",
"    ...... ..   ",
"   ..   ...+.   ",
"   ..    ..+.   ",
"      .@+..+.   ",
"     ..++..+.   ",
"   ...+...++.   ",
"  ..++...+++.   ",
"  ..#...++++.   ",
"   . ..+++++.   ",
"     ..+++++.   ",
"     .. ++++.   ",
"        .+++.   ",
"     .. ...+.   ",
"     ..   ...   ",
"     ..    ..   "};
