/* XPM */
static char * prevmarked_xpm[] = {
"16 16 10 1",
" 	c None",
".	c #000000",
"+	c #7FFF7F",
"@	c #54AA54",
"#	c #0E1D0E",
"$	c #468E46",
"%	c #2A552A",
"&	c #63C763",
"*	c #71E371",
"=	c #1C391C",
"          ..    ",
"         .+.    ",
"       ..@+.    ",
"     .....#.    ",
"    ...@$...    ",
"    ..@++$..    ",
"    .%&++$..    ",
"   .++++*#..    ",
"   .+++&#.#.    ",
"    .++#.%+.    ",
"     .*.=++.    ",
"      .++++.    ",
"       ..++.    ",
"       ..++.    ",
"         .+.    ",
"          ..    "};
