/* XPM */
static char * beaver_xpm[] = {
"24 24 170 2",
"  	c None",
". 	c #DEDEDE",
"+ 	c #E3E3E3",
"@ 	c #E8E8E8",
"# 	c #EBEBEB",
"$ 	c #EEEEEE",
"% 	c #F0F0F0",
"& 	c #EFEFEF",
"* 	c #F2F2F2",
"= 	c #F5F5F5",
"- 	c #F6F6F6",
"; 	c #F7F7F7",
"> 	c #F1F1F1",
", 	c #E9E9E9",
"' 	c #DBDBDB",
") 	c #C8C8C8",
"! 	c #BDBDBD",
"~ 	c #B8B8B8",
"{ 	c #B2B2B2",
"] 	c #ADADAD",
"^ 	c #A8A8A8",
"/ 	c #A2A2A2",
"( 	c #9D9D9D",
"_ 	c #E0E0E0",
": 	c #E6E6E6",
"< 	c #EAEAEA",
"[ 	c #F3F3F3",
"} 	c #FAFAFA",
"| 	c #FCFCFC",
"1 	c #F9F9F9",
"2 	c #BEBEBE",
"3 	c #B3B3B3",
"4 	c #AEAEAE",
"5 	c #A3A3A3",
"6 	c #9E9E9E",
"7 	c #E2E2E2",
"8 	c #E7E7E7",
"9 	c #ECECEC",
"0 	c #FDFDFD",
"a 	c #A9A9A9",
"b 	c #A4A4A4",
"c 	c #EDEDED",
"d 	c #F8F8F8",
"e 	c #3C3B3B",
"f 	c #010000",
"g 	c #7A7A7A",
"h 	c #E1E1E1",
"i 	c #FB0000",
"j 	c #7E0000",
"k 	c #525151",
"l 	c #C7C7C7",
"m 	c #C6C6C6",
"n 	c #C5C5C5",
"o 	c #C4C4C4",
"p 	c #F60000",
"q 	c #7C0000",
"r 	c #515050",
"s 	c #DDDDDD",
"t 	c #F4F4F4",
"u 	c #CACACA",
"v 	c #141414",
"w 	c #000000",
"x 	c #C1C1C1",
"y 	c #F10000",
"z 	c #790000",
"A 	c #5C5B5B",
"B 	c #9C9C9C",
"C 	c #1B1B1B",
"D 	c #C0C0C0",
"E 	c #EC0000",
"F 	c #760000",
"G 	c #6F6F6F",
"H 	c #282828",
"I 	c #2E2E2E",
"J 	c #BFBFBF",
"K 	c #E70000",
"L 	c #740000",
"M 	c #6F6E6E",
"N 	c #434343",
"O 	c #7E7E7E",
"P 	c #767676",
"Q 	c #E20000",
"R 	c #720000",
"S 	c #6E6E6E",
"T 	c #5E5E5E",
"U 	c #5C5C5C",
"V 	c #BCBCBC",
"W 	c #DD0000",
"X 	c #6F0000",
"Y 	c #6D6D6D",
"Z 	c #D2D2D2",
"` 	c #7F7F7F",
" .	c #070707",
"..	c #707070",
"+.	c #3A3A3A",
"@.	c #D80000",
"#.	c #6C0000",
"$.	c #6C6C6C",
"%.	c #D6D6D6",
"&.	c #505050",
"*.	c #D30000",
"=.	c #6A0000",
"-.	c #6C6B6B",
";.	c #D4D4D4",
">.	c #CE0000",
",.	c #680000",
"'.	c #6B6B6B",
").	c #CDCDCD",
"!.	c #E4E4E4",
"~.	c #9A9A9A",
"{.	c #4C4C4C",
"].	c #CA0000",
"^.	c #650000",
"/.	c #E5E5E5",
"(.	c #727272",
"_.	c #320000",
":.	c #C40000",
"<.	c #B9B9B9",
"[.	c #717171",
"}.	c #310000",
"|.	c #C00000",
"1.	c #900000",
"2.	c #ACACAC",
"3.	c #D8D8D8",
"4.	c #300000",
"5.	c #BA0000",
"6.	c #8C0000",
"7.	c #A7A7A7",
"8.	c #B0B0B0",
"9.	c #959595",
"0.	c #4A4A4A",
"a.	c #494949",
"b.	c #484848",
"c.	c #303030",
"d.	c #2E0000",
"e.	c #B60000",
"f.	c #890000",
"g.	c #5F5F5F",
"h.	c #DFDFDF",
"i.	c #DADADA",
"j.	c #D7D7D7",
"k.	c #363535",
"l.	c #2D0000",
"m.	c #B00000",
"n.	c #850000",
"o.	c #606060",
"p.	c #7C7C7C",
"q.	c #9F9F9F",
"r.	c #D3D3D3",
"s.	c #353434",
"t.	c #2C0000",
"u.	c #605F5F",
"v.	c #979797",
"w.	c #999999",
"x.	c #B7B7B7",
"y.	c #D1D1D1",
"z.	c #CCCCCC",
"A.	c #454444",
"B.	c #929292",
"C.	c #939393",
"D.	c #949494",
"E.	c #969696",
"F.	c #B6B6B6",
"G.	c #8A8A8A",
"H.	c #8D8D8D",
"I.	c #8E8E8E",
"J.	c #8F8F8F",
"K.	c #909090",
"L.	c #8C8C8C",
"M.	c #7D7D7D",
". + @ # $ % & & * = - ; - > , ' ) ! ~ { ] ^ / ( ",
"_ : < & [ - } | } 1 ; - = [ * % & . 2 3 4 ^ 5 6 ",
"7 8 9 * 1 0 | } 1 ; - = [ * % & $ 9 @ ) 4 a b 6 ",
"7 @ c d 0 | } 1 ; - = [ * % & $ 9 e f f f f g 6 ",
"h : [ 0 | } 1 ; - = [ * % & $ 9 # f i i i j k 6 ",
"_ @ | | } 1 ; - = [ . ) l m n o + f p p p q r ( ",
"s t | } 1 ; - = [ u v w w w w w x f y y y z A B ",
". | } 1 ; - = [ . C w w w w w w D f E E E F G b ",
"@ } 1 ; - = [ 9 H w I w w w w w J f K K K L M ~ ",
"& 1 ; - = [ 9 N w O P w w w w w 2 f Q Q Q R S ) ",
"t ; - = [ * T w U 9 P w w w w w V f W W W X Y Z ",
"; - = [ * ` w  ...P +.w w w w w T f @.@.@.#.$.%.",
"= = [ * % &.w w w w w w w w w w w f *.*.*.=.-.;.",
"% [ * % & &.w w w w w w w w w w w f >.>.>.,.'.).",
"!.* % & $ ~ B B ~.~.{.w w w f f f f ].].].^.f f ",
"Z % & $ 9 # , @ 8 /.(.w w w _.:.:.:.:.:.:.:.:.:.",
"<.& $ 9 # , @ 8 /.!.[.w w w f }.|.|.|.|.|.|.|.1.",
"2.3.9 # , @ 8 /.!.7 [.w w w w f 4.5.5.5.5.5.6.f ",
"7.8.8 , @ 8 /.!.7 h 9.0.0.a.b.b.c.d.e.e.e.f.f g.",
"/ 5 J @ 8 /.!.7 h h.. s ' i.3.j.%.k.l.m.n.f o.p.",
"B 6 q.x /.!.7 h h.. s ' i.3.j.%.;.r.s.t.f u.p.p.",
"v.w.~.~.x.. h h.. s ' i.3.j.%.;.r.y.z.A.g.p.p.p.",
"B.C.D.9.E.q.m . s ' i.3.j.%.;.r.y.F.G.O p.p.p.p.",
"H.I.J.K.K.K.K.~.3 m y.%.;.z.2 ^ L.` M.p.p.p.p.p."};
