/* XPM */
static char * hint_alt_xpm[] = {
"24 24 254 2",
"  	c None",
". 	c #CFC7A8",
"+ 	c #F5EFD4",
"@ 	c #FCFAED",
"# 	c #FDFBF1",
"$ 	c #FAF5DF",
"% 	c #E3D9B3",
"& 	c #968B5D",
"* 	c #A59D7C",
"= 	c #F9F6E6",
"- 	c #FEFDF9",
"; 	c #FEFDF6",
"> 	c #FEFDF3",
", 	c #FEFDF2",
"' 	c #FEFDF1",
") 	c #FEFCEF",
"! 	c #C7C1A1",
"~ 	c #A79F7C",
"{ 	c #FDFBF3",
"] 	c #FEFDFC",
"^ 	c #F2F1F1",
"/ 	c #F3F2EF",
"( 	c #FEFDF7",
"_ 	c #FEFDF5",
": 	c #F0EFE6",
"< 	c #F5F4E8",
"[ 	c #FEFDEF",
"} 	c #FEFDEE",
"| 	c #DED5B3",
"1 	c #F9F7E9",
"2 	c #FEFDFB",
"3 	c #FEFDFD",
"4 	c #B4B3B3",
"5 	c #ACABA9",
"6 	c #FEFDF8",
"7 	c #B0B0AA",
"8 	c #AAA9A2",
"9 	c #FEFDF0",
"0 	c #B5AA7D",
"a 	c #D6CFAF",
"b 	c #FEFDFA",
"c 	c #ACACAB",
"d 	c #A7A7A5",
"e 	c #FFFEF9",
"f 	c #FFFEF7",
"g 	c #A7A6A0",
"h 	c #A6A69F",
"i 	c #FEFDED",
"j 	c #FEFDEC",
"k 	c #FCF9E0",
"l 	c #2F260D",
"m 	c #F7F3D9",
"n 	c #FEFEFE",
"o 	c #ACABAB",
"p 	c #A9A9A6",
"q 	c #FFFFFA",
"r 	c #FFFFF9",
"s 	c #A6A5A1",
"t 	c #A8A7A1",
"u 	c #FEFDEB",
"v 	c #928B5D",
"w 	c #CFCFCD",
"x 	c #D1D1CE",
"y 	c #FFFFFB",
"z 	c #C8C8C4",
"A 	c #CBCAC4",
"B 	c #FFFEF4",
"C 	c #8B897B",
"D 	c #97918A",
"E 	c #4F4943",
"F 	c #726D68",
"G 	c #FDFCF5",
"H 	c #F5F4EF",
"I 	c #FFFFFC",
"J 	c #FFFFFD",
"K 	c #FFFFF4",
"L 	c #FFFEF5",
"M 	c #FFFEEE",
"N 	c #C2C1B2",
"O 	c #89887F",
"P 	c #827B73",
"Q 	c #CDBFB2",
"R 	c #C0B7AD",
"S 	c #B6AA9C",
"T 	c #716C67",
"U 	c #FBF7E3",
"V 	c #D6D5CF",
"W 	c #CECDC9",
"X 	c #FFFEF0",
"Y 	c #FFFEF3",
"Z 	c #A6A599",
"` 	c #9B936F",
" .	c #C4BAAF",
"..	c #A49280",
"+.	c #DED1C1",
"@.	c #B8ACA0",
"#.	c #D3CABF",
"$.	c #35322D",
"%.	c #E7DEBC",
"&.	c #EBEAE4",
"*.	c #FEFDDE",
"=.	c #FFFEF6",
"-.	c #FFFEE5",
";.	c #C0BFB1",
">.	c #D6D5C4",
",.	c #FEFCEB",
"'.	c #BBA75B",
").	c #B2A88B",
"!.	c #615B53",
"~.	c #E0D7CD",
"{.	c #BBAEA2",
"].	c #B3A291",
"^.	c #D5CBC0",
"/.	c #C6BAAF",
"(.	c #8A8580",
"_.	c #A49A6F",
":.	c #A3A39A",
"<.	c #D3D2C5",
"[.	c #FEFDE7",
"}.	c #FFFEF2",
"|.	c #FFFEEF",
"1.	c #FEFCC8",
"2.	c #C3C2B3",
"3.	c #C0BFB0",
"4.	c #FEFDEA",
"5.	c #E7DEB5",
"6.	c #95865B",
"7.	c #DBD5C6",
"8.	c #A69480",
"9.	c #E3D7C8",
"0.	c #F1ECE8",
"a.	c #D1CAC3",
"b.	c #BFB1A3",
"c.	c #D8CEC3",
"d.	c #736B62",
"e.	c #C8C3AB",
"f.	c #FEFCEE",
"g.	c #C8C7B8",
"h.	c #A4A381",
"i.	c #B8B8AA",
"j.	c #B9B9A9",
"k.	c #B9B89A",
"l.	c #A8A893",
"m.	c #D5D4C2",
"n.	c #FEFDE9",
"o.	c #FDFAE4",
"p.	c #47442E",
"q.	c #8C7F60",
"r.	c #E0D8CE",
"s.	c #C5B8A9",
"t.	c #C0B2A3",
"u.	c #EEE8E3",
"v.	c #F1EEEB",
"w.	c #CBBFB5",
"x.	c #C2B6A6",
"y.	c #D8D2B8",
"z.	c #FEFBED",
"A.	c #FEFCC1",
"B.	c #E9E8C9",
"C.	c #E8E7C5",
"D.	c #E7E5AE",
"E.	c #FEFDE8",
"F.	c #FCFAE4",
"G.	c #796D4E",
"H.	c #4F463A",
"I.	c #DDD0C0",
"J.	c #E6DCD0",
"K.	c #D7C9BB",
"L.	c #EDE9E4",
"M.	c #F0EBE7",
"N.	c #E1D4C7",
"O.	c #756A5F",
"P.	c #ABA281",
"Q.	c #F9F2BD",
"R.	c #FBF5B1",
"S.	c #FDF9B6",
"T.	c #FEFBB7",
"U.	c #FDFAB6",
"V.	c #FCF8B9",
"W.	c #DFD9A5",
"X.	c #464330",
"Y.	c #867B6E",
"Z.	c #E3D5C3",
"`.	c #E7DACB",
" +	c #E7DED3",
".+	c #DED2C2",
"++	c #B8A896",
"@+	c #37322B",
"#+	c #F5ECB0",
"$+	c #F8F3CC",
"%+	c #F9F4CD",
"&+	c #F9F4C2",
"*+	c #F9F2B4",
"=+	c #EEE290",
"-+	c #A08A38",
";+	c #2D2612",
">+	c #6E655A",
",+	c #AA9B8B",
"'+	c #BAA996",
")+	c #A89784",
"!+	c #726352",
"~+	c #F3E8BD",
"{+	c #EBDDA1",
"]+	c #E6D896",
"^+	c #DECC76",
"/+	c #D4C16E",
"(+	c #CCBB77",
"_+	c #6D6034",
":+	c #807341",
"<+	c #95864F",
"[+	c #70643B",
"}+	c #1B1810",
"|+	c #605243",
"1+	c #EFE0A9",
"2+	c #F7EFCF",
"3+	c #F6ECC6",
"4+	c #EBDBA1",
"5+	c #DFD096",
"6+	c #C1B177",
"7+	c #4B452E",
"8+	c #4C4529",
"9+	c #A39357",
"0+	c #CFBA6F",
"a+	c #BBA864",
"b+	c #423B23",
"c+	c #F2E5BA",
"d+	c #ECE3C7",
"e+	c #E5DDC1",
"f+	c #D9CB9D",
"g+	c #CEC08F",
"h+	c #C9BB8A",
"i+	c #4D4529",
"j+	c #EEE4C0",
"k+	c #E5DAB0",
"l+	c #D8CA96",
"m+	c #C7B470",
"n+	c #BAA763",
"o+	c #BAAB76",
"p+	c #463F25",
"q+	c #9F9469",
"r+	c #EAE1BC",
"s+	c #E8DEB8",
"t+	c #DACC99",
"u+	c #D0C28E",
"v+	c #928553",
"w+	c #070704",
"x+	c #464234",
"y+	c #817C68",
"z+	c #6C664D",
"A+	c #302C1F",
"B+	c #0E0D07",
"C+	c #2A2A2A",
"D+	c #282828",
"E+	c #020202",
"                                                ",
"          . + @ # $ % &                         ",
"      * = - - ; > , ' ) !                       ",
"    ~ { ] ^ / ( _ : < [ } |                     ",
"    1 2 3 4 5 6 ; 7 8 9 } } 0                   ",
"  a b ] 3 c d e f g h 9 i j k l                 ",
"  m b ] n o p q r s t ' i u } v                 ",
"  # - 2 ] w x y q z A B } u i C       D E F     ",
"  G H b 2 I I I I J K L M N i O     P Q R S T   ",
"  U V W - X y y y r X Y j Z j `      ...+.@.#.$.",
"  %.> g &.*.f f =.=.-.i ;.>.,.'.).!.~.{.].^./.(.",
"  _.# [ :.<.[.}.}.|.1.2.3.4.5.6.7.8.9.0.a.b.c.d.",
"    e.f.u g.h.i.j.k.l.m.n.o.p.q.r.s.t.u.v.w.x.  ",
"      y.z.n.A.B.C.D.[.E.F.G.  H.I.J.K.L.M.N.O.  ",
"        P.Q.R.S.T.U.V.W.X.      Y.Z.`. +.+++@+  ",
"          #+$+%+&+*+=+-+;+        >+,+'+)+!+    ",
"          ~+{+]+^+/+(+_+:+<+      [+}+|+        ",
"          1+2+3+4+5+6+7+  8+9+0+a+b+            ",
"          c+d+e+f+g+h+i+                        ",
"          j+k+l+m+n+o+p+                        ",
"          q+r+s+t+u+v+w+                        ",
"            x+y+z+A+B+                          ",
"              C+D+E+                            ",
"                                                "};
