/* XPM */
static char * leftarrow_xpm[] = {
"3 10 2 1",
" 	c None",
".	c #000000",
"   ",
"   ",
"   ",
"  .",
" ..",
"...",
" ..",
"  .",
"   ",
"   ",
"   ",
};
