/* XPM */
static char * nextmove_xpm[] = {
"16 16 3 1",
" 	c None",
".	c #000000",
"+	c #7FFF7F",
"    ..          ",
"    .+.         ",
"    .++.        ",
"    .+++.       ",
"    .++++.      ",
"    .+++++.     ",
"    .++++++.    ",
"    .+++++++.   ",
"    .+++++++.   ",
"    .++++++.    ",
"    .+++++.     ",
"    .++++.      ",
"    .+++.       ",
"    .++.        ",
"    .+.         ",
"    ..          "};
