/* XPM */
static char * question_xpm[] = {
"64 64 248 2",
"  	c None",
". 	c #000000",
"+ 	c #FFFFFF",
"@ 	c #FEFEFE",
"# 	c #FDFDFD",
"$ 	c #FCFCFC",
"% 	c #FAFAFA",
"& 	c #F9F9F9",
"* 	c #F6F6F6",
"= 	c #DBDBDB",
"- 	c #D7D7D7",
"; 	c #CACACA",
"> 	c #C5C5C5",
", 	c #C6C6C6",
"' 	c #F4F4F4",
") 	c #FBFBFB",
"! 	c #F1F1F1",
"~ 	c #DFDFDF",
"{ 	c #ECECEC",
"] 	c #DDDDDD",
"^ 	c #B3B3B3",
"/ 	c #ABABAB",
"( 	c #DADADA",
"_ 	c #C7C7C7",
": 	c #B4B4B4",
"< 	c #BDBDBD",
"[ 	c #C4C4C4",
"} 	c #BCBCBC",
"| 	c #D1D1D1",
"1 	c #979797",
"2 	c #989898",
"3 	c #B2B2B2",
"4 	c #A7A7A7",
"5 	c #939393",
"6 	c #D4D4D4",
"7 	c #B9B9B9",
"8 	c #BBBBBB",
"9 	c #9F9F9F",
"0 	c #727272",
"a 	c #565656",
"b 	c #4F4F4F",
"c 	c #737373",
"d 	c #7E7E7E",
"e 	c #3E3E3E",
"f 	c #3C3C3C",
"g 	c #DCDCDC",
"h 	c #EDEDED",
"i 	c #EFEFEF",
"j 	c #B8B8B8",
"k 	c #818181",
"l 	c #7D7D7D",
"m 	c #666666",
"n 	c #7C7C7C",
"o 	c #898989",
"p 	c #B1B1B1",
"q 	c #A4A4A4",
"r 	c #B0B0B0",
"s 	c #9A9A9A",
"t 	c #D5D5D5",
"u 	c #686868",
"v 	c #575757",
"w 	c #636363",
"x 	c #343434",
"y 	c #8A8A8A",
"z 	c #797979",
"A 	c #6B6B6B",
"B 	c #393939",
"C 	c #A2A2A2",
"D 	c #AAAAAA",
"E 	c #F0F0F0",
"F 	c #CCCCCC",
"G 	c #A0A0A0",
"H 	c #919191",
"I 	c #848484",
"J 	c #1B1B1B",
"K 	c #3D3D3D",
"L 	c #5D5D5D",
"M 	c #828282",
"N 	c #7B7B7B",
"O 	c #646464",
"P 	c #909090",
"Q 	c #8F8F8F",
"R 	c #8B8B8B",
"S 	c #F2F2F2",
"T 	c #C3C3C3",
"U 	c #E8E8E8",
"V 	c #CBCBCB",
"W 	c #7A7A7A",
"X 	c #292929",
"Y 	c #858585",
"Z 	c #E1E1E1",
"` 	c #6D6D6D",
" .	c #4C4C4C",
"..	c #8C8C8C",
"+.	c #BEBEBE",
"@.	c #949494",
"#.	c #B5B5B5",
"$.	c #C8C8C8",
"%.	c #D0D0D0",
"&.	c #878787",
"*.	c #B7B7B7",
"=.	c #B6B6B6",
"-.	c #888888",
";.	c #1D1D1D",
">.	c #494949",
",.	c #5C5C5C",
"'.	c #ACACAC",
").	c #C9C9C9",
"!.	c #DEDEDE",
"~.	c #AFAFAF",
"{.	c #C2C2C2",
"].	c #E6E6E6",
"^.	c #D3D3D3",
"/.	c #C1C1C1",
"(.	c #BABABA",
"_.	c #A1A1A1",
":.	c #656565",
"<.	c #232323",
"[.	c #323232",
"}.	c #6F6F6F",
"|.	c #E3E3E3",
"1.	c #E9E9E9",
"2.	c #BFBFBF",
"3.	c #E0E0E0",
"4.	c #808080",
"5.	c #787878",
"6.	c #969696",
"7.	c #A5A5A5",
"8.	c #F5F5F5",
"9.	c #CECECE",
"0.	c #D2D2D2",
"a.	c #EBEBEB",
"b.	c #9E9E9E",
"c.	c #515151",
"d.	c #595959",
"e.	c #929292",
"f.	c #ADADAD",
"g.	c #9B9B9B",
"h.	c #9D9D9D",
"i.	c #CDCDCD",
"j.	c #C0C0C0",
"k.	c #F7F7F7",
"l.	c #A9A9A9",
"m.	c #767676",
"n.	c #313131",
"o.	c #525252",
"p.	c #E5E5E5",
"q.	c #A3A3A3",
"r.	c #8E8E8E",
"s.	c #6E6E6E",
"t.	c #777777",
"u.	c #868686",
"v.	c #AEAEAE",
"w.	c #4E4E4E",
"x.	c #E7E7E7",
"y.	c #A8A8A8",
"z.	c #444444",
"A.	c #0C0C0C",
"B.	c #1C1C1C",
"C.	c #1E1E1E",
"D.	c #555555",
"E.	c #282828",
"F.	c #0E0E0E",
"G.	c #474747",
"H.	c #111111",
"I.	c #202020",
"J.	c #414141",
"K.	c #5E5E5E",
"L.	c #717171",
"M.	c #626262",
"N.	c #E2E2E2",
"O.	c #D9D9D9",
"P.	c #D6D6D6",
"Q.	c #A6A6A6",
"R.	c #616161",
"S.	c #101010",
"T.	c #333333",
"U.	c #1F1F1F",
"V.	c #030303",
"W.	c #020202",
"X.	c #151515",
"Y.	c #424242",
"Z.	c #2F2F2F",
"`.	c #3B3B3B",
" +	c #161616",
".+	c #131313",
"++	c #050505",
"@+	c #010101",
"#+	c #040404",
"$+	c #222222",
"%+	c #CFCFCF",
"&+	c #606060",
"*+	c #7F7F7F",
"=+	c #484848",
"-+	c #0D0D0D",
";+	c #090909",
">+	c #757575",
",+	c #2E2E2E",
"'+	c #0F0F0F",
")+	c #0A0A0A",
"!+	c #696969",
"~+	c #353535",
"{+	c #1A1A1A",
"]+	c #070707",
"^+	c #080808",
"/+	c #141414",
"(+	c #707070",
"_+	c #D8D8D8",
":+	c #8D8D8D",
"<+	c #242424",
"[+	c #454545",
"}+	c #999999",
"|+	c #838383",
"1+	c #0B0B0B",
"2+	c #121212",
"3+	c #252525",
"4+	c #9C9C9C",
"5+	c #F8F8F8",
"6+	c #383838",
"7+	c #747474",
"8+	c #262626",
"9+	c #545454",
"0+	c #373737",
"a+	c #EEEEEE",
"b+	c #F3F3F3",
"c+	c #6C6C6C",
"d+	c #505050",
"e+	c #535353",
"f+	c #3A3A3A",
"g+	c #585858",
"h+	c #464646",
"i+	c #4D4D4D",
"j+	c #E4E4E4",
"k+	c #2C2C2C",
"l+	c #272727",
"m+	c #5F5F5F",
"n+	c #2B2B2B",
"o+	c #6A6A6A",
"p+	c #2A2A2A",
"q+	c #676767",
"r+	c #3F3F3F",
"s+	c #363636",
"t+	c #959595",
"u+	c #EAEAEA",
"v+	c #2D2D2D",
"w+	c #5B5B5B",
"x+	c #4B4B4B",
"y+	c #404040",
". . . . . . . . . . . . . . . . . . . . . . . . . . . . . . . . . . . . . . . . . . . . . . . . . . . . . . . . . . . . . . . . ",
". + + + + + + + + + + + + + + + + + + + + + + + + + + + + + + + + + + + + + + + + + + + + + + + + + + + + + + + + + + + + + + . ",
". + + + + + + + + + + + + + + + + + + + + + + + + + + + + + + + + + + + + + + + + + + + + + + + + + + + + + + + + + + + + + + . ",
". + + + + + + + @ # # # # $ # @ # $ $ @ @ # # @ # @ + + + + + + + + + + + + + @ @ @ @ # @ # # @ # # # @ # # # $ $ @ + + + + + . ",
". + + + + + + + @ $ % & @ * = - ; > , - ' # $ # $ $ @ + + + + + + + + + + + @ @ @ @ # # # ) # $ $ ) ! ~ ~ { % $ $ @ + + + + + . ",
". + + + + + + + # ) $ ] ^ / ( _ : ^ < [ : } ~ ) # # $ @ + + + + + + + + + + # @ # @ # # # # ) % | 1 2 3 , 4 5 6 $ @ + + + + + . ",
". + + + + + + + # ~ < 7 8 9 0 a b c d e f 4 , } g ) * ) + + + + + + + + + + @ @ # % h $ $ i j k l 0 m n o n p q r i + + + + + . ",
". + + + @ @ # % s _ t u v w x y u z A z w m B C : / D g + + + + + + + + + + @ # $ E F G H I J K L M H I N O a P Q R S $ $ @ + . ",
". + + + + $ ) T U V 9 W X k Y Z r `  ...+.; @.#.< r $.@ + + + + + + + + + + @ $ @ $ %.j q m &.: *.} / =.-.;.>.L ,.P '.% # @ + . ",
". + + + # ) ).= !.P 5 #.z M ~.2 {.].) * ~ t $.V ^.% $ @ + + + + + + + + + + # @ # # # ! ).< /.(.=._.W 1 Y N :.<.[.}.P |.# @ + . ",
". @ @ # @ ^.= 1.r -.} 2.^.9 3.# $ # # $ # # @ $ $ # ) @ @ @ + @ @ @ + @ @ @ @ # # @ # # $ @ % # + # ' +.&.4.5.f e O $.*.$ @ + . ",
". $ $ $ S / 1.{.G 6.2.> 7.* % # + + + @ # # # # @ 8.6 9.0.a.# @ # $ $ # @ $ @ $ $ $ # # # $ @ + + @ $ * y b.} c.d.m {.e.! @ + . ",
". $ # $ / = !.*.f.g.h.< 8.) $ $ + + + @ ) $ # ].p $.F i.j.7.C Z # $ # { / ~.: T k.# ) # # # @ + + @ ) $ ] l.m.z n.o.b.7.g @ + . ",
". # # ) r * p.[ j.q.r.g @ % @ # + + + @ $ S < [ ( - '.H z s.&.3 > !.*.,.w t.:.q.u.v.h ) $ # @ + + @ @ ) # / s 7.w.[.s./ ( @ + . ",
". @ # x.< U {.u.1 R y.) @ # @ @ @ @ + # @ : U |.}.,.n.z.A.B.C.d #.D.E.F.B.G.H.I.J.K.Q t @ # # @ # @ $ $ # T (.e.L.M.0 4 N.@ + . ",
". # # F O.* N.3 ,.d.'.$ @ + + + # # $ $ ~.P.Q.R.e S.T.U.V.W.X.<.Y.Z.`.C. +.+++@+#+$+1 P F # @ ) # $ # @ # g q : k q.h.q 6 @ + . ",
". @ @ %+3.3.| m.&+4.: ) @ + + @ # # % {._ *+=+@+V.-+V.V.V.@+#+W.;+-+m >+,+B '+W.. #+)+m v.Z # @ $ # # # # O.; H B n.u : ( @ + . ",
". $ @ /.%+r 9 W !+p 7 ) @ + + @ $ # 6 =.1 ~+{+]+++^+V.]+W.V./+U.S.<.4.*+c.0 (+#+V.W.V.++5.2.! ) # @ # # # *._+5 a y '.r 1.@ + . ",
". @ # 6 ( g :+n l ).8 $ # @ # @ ) { ~.5.<+;+`.-+^+U.;+A.++W.++[+M.K.}+|+l l k 1+2+B.++'+3+4+l.5+# # $ # $ ~.m.C.6+m 2 V a.@ + . ",
". @ # - O.[ e._.N /.+.& $ $ # # h 7 }+n.;+++~+n.v |+y.R O ` / 8.{ Y D =.'.!+7+P z K [.<+<.8+-.=.% ) $ $ %.7 9+>.` A *._ { @ + . ",
". @ # V ( Z v.M m 1 T ].$ # $ ^.2 d 6+<+=+f.P.x.& $ # * h ) # # ) P.Y m.0+Y a+) h j b+Z Q.L c+c+C ).p._ C d+B.e+W o p q & @ + . ",
". # # t 7 3.N K.K.f+@.s V 3.T :+6+,+6+D x.) ) # % V ^ g+[ % # % {.( 8.6 k u.5+b+O., ^.# $ g N K.,.y N h+9+g+e !+}.'.=.t $ @ + . ",
". # @ 8.4+~ 7.5 ;. .i+d.e.^.Y ~+W.E.6 # # @ $ % /.l D.3+j+@ # # i 9.i 8.Q.y ) 6.m a+8 8.$ ) ] O D.D.G.k+8+h+D.l+Q.j./ S # @ + . ",
". # # # ~.3.|._.6+:.m+n+Y.0 Z.]+Y.F # # @ # # N.5.{.` =.$ i ].| % % 1.5+b+% $ o.8 a+~ ~ # # # D m. .&+o+p+M.*+Y p j.[ ) $ @ + . ",
". # # ) S '.- 8 v.n q+Y.~+3+r+[.D # ) ) # $ # 7 %+S ! & 3.~ ) /.[ # !.] $ $ h p+Z a+6 ! $ ) ) 8.(+I K.s.Y / q., j.D k.$ ) @ + . ",
". $ # # @ t , *.:+5 4 d+h+Y.7+m+& @ # @ $ # { i 3.@ # & T P.l.9 [ ) * |.# $ p.o [ G p 5+# @ $ $ s :+(+b.g.} j.(.Q 8.$ $ # @ + . ",
". + + + @ $ 2.'.{.> C Q.>+4+P /.+ + + + + + + @ _+@ $ !.e c.A.B #.! # { & # $ u.N 2+J.j.$ # ) $ N.c 4 > ^ - } Q.& @ + + + + + . ",
". + + + @ # % ).V < : (.+.j+}.) + + + + + + + # 3.# # Z C g {+J.] $ # & % # # ( s+f+*.t # # # # % 3 q+7.^ p.U ) # @ + + + + + . ",
". + + + @ % $ * , < =.j ).|.q $ + + + + + + + * ; # $ $ , ).f., j+i # # $ @ @ % , s t+^.# $ ) % ) a+r b+# $ $ $ # @ + + + + + . ",
". + + + @ $ @ @ & %+D /.0.].F @ + + + + @ @ @ ~ (.# @ @ $ ) u+a.8.p.# $ @ @ @ # % 7 > +.% # # # # $ j+= # # # ) # @ + + + + + . ",
". + + + + + + + @ ) k.U _ C 6 # + + + @ $ $ % (.t # @ @ + + + $ $ ) # # # # @ # ) !., 4 %.$ @ # # # # 6 % ) + + + + + + + + + . ",
". + + + + + + + @ $ @ # # V * ) + + + @ ) ) i , %+# # @ + + + @ @ @ ) ) # # @ @ @ 5+7 j.~ < h $ $ # ) _+t+Q.+ + + + + + + + + . ",
". + + + + + + + @ @ @ @ * r ' # + + + @ ) h , # j+# ) @ + + + @ @ ) S V t * # # # ) - P N.% ~.r.5 {._ ] K.; + + + + + + + + + . ",
". + + + + + + + # @ # # , !.$ @ @ @ # $ U q.i # ' S @ # @ @ # # $ ^.< ^.[ ^ a.% @ $ $ G - p.O.E j+).^.( h @ + + + + + + + + + . ",
". + + + + + + + $ $ $ $ F 5+) # $ ) E < y.8.$ ) # ) # @ # # # # { }+r.] * ) p.l %+& ) % _ T ! q.$ # + + + + + + + + + + + + + . ",
". + + + + + + + @ $ ) 6 +.) $ |.; *.7.j {.$ $ # # # @ @ $ @ # ) ! u.p ( | b+) g u.~.) # $ $ $ l.k.# + + + + + + + + + + + + + . ",
". + + + + + + + @ # ~ > % |.r 4+u._ b+! _ $ $ # # @ # ) { 5+# # ' $.a+n b ~.a+# $ |.h # # # # F x.$ + + + + + + + + + + + + + . ",
". + + + + + + + @ % 6 P.I d ; ; ^.@ $ # {.* ) $ @ @ @ 8.~ % # @ $ b+) E t _ g.# $ $ # @ # # # , 1.# + + + + + + + + + + + + + . ",
". + + + + + + + # # | 0.g Z ) V 5+# @ a.}+{ # + + + + @ # ! _ # k.x.$ $ @ 3.{.N.$ @ # @ $ S C 4 % $ + + + + + + + + + + + + + . ",
". + + + + + + + # % $ # # # # 6 $ @ @ 8.q.!.@ # + + + $ $ # k.%.3.$ $ $ # 5+& i # $ @ * [ m+u.% $ @ + + + + + + + + + + + + + . ",
". + + + + + + + # @ # $ $ # # 0.@ # @ @ % =.& @ @ @ @ ) # # $ /.O.# # # $ @ @ $ $ $ , o m+q $ $ # # + + + + + + + + + + + + + . ",
". + + + + + + + + + + + @ # @ | # @ # @ $ T p.) ) $ # @ + + + * @.) $ ) @ # ) # ) % | ( 0.^ 8.$ @ $ + 5+].Z x.% + + + + + + + . ",
". + + + + + + + + + + + @ # # N.].$ @ # ) !._ 9.* ) $ @ + + + # ] [ % $ $ $ ) ) # # # ) # p.@.& ) ) - t.l 0 v+v i.+ + + + + + . ",
". + + + + + + + + + + + @ @ # ' , # # @ $ @ %+3.$.b+# @ + + + # & q [ & $ ) % * j+; [ T p : > 5+# |.9+( + + t A.B.^.+ + + + + . ",
". + + + + + + + + + + + @ @ @ ) [ # # # # @ # E 7 6 ) @ + @ @ # $ 5+9.5.:+h.#.6.{.r :+K.o.P.) @ # h.;.O.+ + + w+. t.+ + + + + . ",
". + + + + + + + + + + + + + + @ r b+$ @ + + + ].=.a.$ # @ @ $ # # # # U !.%+Z % # $ $ ) +.% + + + R . t.+ + + 5.. D.+ + + + + . ",
". + + + + + + + + + + + + + + @ a.0.% # + + + x.> 8.$ # # $ @ # @ @ # ) ) $ $ # $ # $ # ; k.@ + + _+e+3 + + + q+. L.+ + + + + . ",
". + + + + + + + + + + + + + + @ % ; ) $ + + + ) j+[ j.{ $ @ # # & 5+i # k.i %+@.o @.Q.s r ) @ + + @ ) @ + + + s+1+[ + + + + + . ",
". + + + + + + + + + + + + + + @ # ( O.@ @ @ @ @ $ { | [ $ # $ @ @ S 3.*.H f I.)+/+_.b+a+$ @ @ + + + + + + + ].@+c + + + + + + . ",
". + + + + + + + + + + + + + + @ ) $ $.! $ $ ) $ # # h ^.' h a.$ % @ ! 8 P m+*+'.t+$ @ + + + + + + + + + + + l r+E + + + + + + . ",
". + + + + + + + + + + + + + + @ $ # b+%.S $ # $ $ k.3.a.b+#.{ h * $ # # a+- k.x.}+$ @ + + + + + + + + + + ! s+N.+ + + + + + + . ",
". + + + + + + + + + + + + + + @ # $ $ * y.1.% @ $ # x.N.b+s = F $ $ $ $ ) a.|.a.{.a+@ + + + + + + + + + + *.@.+ + + + + + + + . ",
". + + + + + + + + + + + + + + @ @ @ @ @ ].{.i & # @ + i - t $._ $ ) @ # $ & $.j+C a+@ + + + + + + + + + + -.U + + + + + + + + . ",
". + + + + + + + + + + + + + + + + + + @ & x.k.' @ @ @ ) ! a.O.T _ & $ $ ) j.T 2.: $ # + + + + + + + + + + r 5++ + + + + + + + . ",
". + + + + + + + + + + + + + + + + + + @ # ' k.) + + @ $ $ j+N.( > t ) x.g.P $.j+h % # + + + + + + + + + + % @ + + + + + + + + . ",
". + + + + + + + + + + + + + + + + + + @ # $ % + @ @ @ k.( _+5+a.4 9.x.r q.} ~ h 5+a.@ + + + + + + + + + !.0 %.+ + + + + + + + . ",
". + + + + + + + + + + + + + + + + + + + + + + + + + + h t % $ 0.f.] ; T L 3.R 4+( %.O.# ) $ @ + + + + + w . s++ + + + + + + + . ",
". + + + + + + + + + + + + + + + + + + + + + + + + + + $ x.' # a+> 3 ).: !+(.u p+x+o ^ $ @ # @ + + + + + 4 $+R + + + + + + + + . ",
". + + + + + + + + + + + + + + + + + + + + + + + + + + @ $ $ @ u+! > F 7.t.- q y+K.~ ) $ # # + + + + + + + + + + + + + + + + + . ",
". + + + + + + + + + + + + + + + + + + + + + + + + + + @ # $ # # ' ) E 3.$.2.g f.j.^.j+@ $ # @ + + + + + + + + + + + + + + + + . ",
". + + + + + + + + + + + + + + + + + + + + + + + + + + + + + + + + + @ ! 5+i { # @ # # + + + + + + + + + + + + + + + + + + + + . ",
". + + + + + + + + + + + + + + + + + + + + + + + + + + + + + + + + + + + + + + + + + + + + + + + + + + + + + + + + + + + + + + . ",
". + + + + + + + + + + + + + + + + + + + + + + + + + + + + + + + + + + + + + + + + + + + + + + + + + + + + + + + + + + + + + + . ",
". . . . . . . . . . . . . . . . . . . . . . . . . . . . . . . . . . . . . . . . . . . . . . . . . . . . . . . . . . . . . . . . "};
