/* XPM */
static char * resign_bg_xpm[] = {
"24 24 97 2",
"  	c None",
". 	c #000000",
"+ 	c #A8B5A5",
"@ 	c #667860",
"# 	c #708569",
"$ 	c #51664A",
"% 	c #9C9C9C",
"& 	c #C5C5C5",
"* 	c #E9E9E9",
"= 	c #EBEBEB",
"- 	c #D4D4D4",
"; 	c #C4C4C4",
"> 	c #717171",
", 	c #2F2F2F",
"' 	c #808080",
") 	c #BEBEBE",
"! 	c #D1D1D1",
"~ 	c #E7E7E7",
"{ 	c #E1E1E1",
"] 	c #DBDBDB",
"^ 	c #CECECE",
"/ 	c #C1C1C1",
"( 	c #9F9F9F",
"_ 	c #919191",
": 	c #313131",
"< 	c #353535",
"[ 	c #797979",
"} 	c #B7B7B7",
"| 	c #E2E2E2",
"1 	c #EEEEEE",
"2 	c #BDBDBD",
"3 	c #E8E8E8",
"4 	c #D5D5D5",
"5 	c #CFCFCF",
"6 	c #9B9B9B",
"7 	c #5A5A5A",
"8 	c #454545",
"9 	c #5E5E5E",
"0 	c #C0C0C0",
"a 	c #DDDDDD",
"b 	c #E5E5E5",
"c 	c #EAEAEA",
"d 	c #F3F3F3",
"e 	c #F0F0F0",
"f 	c #DCDCDC",
"g 	c #D6D6D6",
"h 	c #5C5C5C",
"i 	c #939393",
"j 	c #F2F2F2",
"k 	c #D2D2D2",
"l 	c #E3E3E3",
"m 	c #D7D7D7",
"n 	c #171717",
"o 	c #8A8A8A",
"p 	c #464646",
"q 	c #191919",
"r 	c #E4E4E4",
"s 	c #DEDEDE",
"t 	c #A1A1A1",
"u 	c #B1B1B1",
"v 	c #CBCBCB",
"w 	c #D3D3D3",
"x 	c #D8D8D8",
"y 	c #C7C7C7",
"z 	c #F4F4F4",
"A 	c #BFBFBF",
"B 	c #ECECEC",
"C 	c #DFDFDF",
"D 	c #D9D9D9",
"E 	c #E6E6E6",
"F 	c #E0E0E0",
"G 	c #EDEDED",
"H 	c #B8B8B8",
"I 	c #C8C8C8",
"J 	c #F5F5F5",
"K 	c #303030",
"L 	c #969696",
"M 	c #C9C9C9",
"N 	c #848484",
"O 	c #C2C2C2",
"P 	c #EFEFEF",
"Q 	c #494949",
"R 	c #787878",
"S 	c #121212",
"T 	c #4F4F4F",
"U 	c #747474",
"V 	c #878787",
"W 	c #444444",
"X 	c #4E4E4E",
"Y 	c #676767",
"Z 	c #CACACA",
"` 	c #F1F1F1",
" .	c #222222",
"..	c #2A2A2A",
"+.	c #6A6A6A",
"@.	c #B9B9B9",
"#.	c #ACACAC",
"  . .                                           ",
". + @ . . . . . . . .                         . ",
". # $ . % & * = - ; > , . .             . . ' . ",
". # $ . ) ! ~ { ] - ^ / ( _ : . . . < [ } | 1 . ",
". # $ . 2 ! 3 | ] 4 5 6 7 8 9 0 a { b c 1 d e . ",
". # $ . 2 ! * | f g h . . . . . i { b c 1 d j . ",
". # $ . ) k * l a m n . 7 o p . q { b c 1 d d . ",
". # $ . ) k c r s m t u v 5 - . . { b c 1 d d . ",
". # $ . ) w = b s x 5 y v o p . q { b c 1 d z . ",
". # $ . A - B b C D 5 6 . . . . i { b c 1 d z . ",
". # $ . 0 4 B E F D 5 6 . . . . i { b c 1 d z . ",
". # $ . / 4 G E | | 5 y v H 9 . . I b c 1 d J . ",
". # $ . / g 1 E E | 5 y v 5 - K . L b c 1 d z . ",
". # $ . / m 1 E | M 8 N v 5 - K . L b c 1 d d . ",
". # $ . O m P * | i . . > o 9 . q { b c 1 d j . ",
". # $ . O x e * l C Q . . . . . i { b c 1 d c . ",
". # $ . R . . . S T U V W X Y Z 3 c B ` B b ( . ",
". # $ .                ...+.@.- 3 * l ! #.. .   ",
". # $ .                     . . . . . .         ",
". # $ .                                         ",
". # $ .                                         ",
". # $ .                                         ",
". # $ .                                         ",
". # $ .                                         "};
/* XPM */
static char * resign_g_xpm[] = {
"24 24 99 2",
"  	c None",
". 	c #000000",
"+ 	c #A8B5A5",
"@ 	c #667860",
"# 	c #708569",
"$ 	c #51664A",
"% 	c #9C9C9C",
"& 	c #C5C5C5",
"* 	c #E9E9E9",
"= 	c #EBEBEB",
"- 	c #D4D4D4",
"; 	c #C4C4C4",
"> 	c #717171",
", 	c #2F2F2F",
"' 	c #808080",
") 	c #BEBEBE",
"! 	c #D1D1D1",
"~ 	c #E7E7E7",
"{ 	c #E1E1E1",
"] 	c #DBDBDB",
"^ 	c #CECECE",
"/ 	c #C1C1C1",
"( 	c #9F9F9F",
"_ 	c #919191",
": 	c #313131",
"< 	c #353535",
"[ 	c #797979",
"} 	c #B7B7B7",
"| 	c #E2E2E2",
"1 	c #EEEEEE",
"2 	c #BDBDBD",
"3 	c #E8E8E8",
"4 	c #D5D5D5",
"5 	c #CFCFCF",
"6 	c #C7C7C7",
"7 	c #454545",
"8 	c #464646",
"9 	c #909090",
"0 	c #DDDDDD",
"a 	c #E5E5E5",
"b 	c #EAEAEA",
"c 	c #F3F3F3",
"d 	c #F0F0F0",
"e 	c #DCDCDC",
"f 	c #D6D6D6",
"g 	c #B8B8B8",
"h 	c #161616",
"i 	c #494949",
"j 	c #F2F2F2",
"k 	c #D2D2D2",
"l 	c #E3E3E3",
"m 	c #D7D7D7",
"n 	c #171717",
"o 	c #8A8A8A",
"p 	c #767676",
"q 	c #AFAFAF",
"r 	c #E4E4E4",
"s 	c #DEDEDE",
"t 	c #5C5C5C",
"u 	c #585858",
"v 	c #CBCBCB",
"w 	c #484848",
"x 	c #969696",
"y 	c #D3D3D3",
"z 	c #D8D8D8",
"A 	c #BCBCBC",
"B 	c #C8C8C8",
"C 	c #F4F4F4",
"D 	c #BFBFBF",
"E 	c #ECECEC",
"F 	c #DFDFDF",
"G 	c #D9D9D9",
"H 	c #737373",
"I 	c #626262",
"J 	c #C0C0C0",
"K 	c #E6E6E6",
"L 	c #E0E0E0",
"M 	c #B1B1B1",
"N 	c #2D2D2D",
"O 	c #606060",
"P 	c #EDEDED",
"Q 	c #A5A5A5",
"R 	c #F5F5F5",
"S 	c #434343",
"T 	c #B4B4B4",
"U 	c #C2C2C2",
"V 	c #EFEFEF",
"W 	c #787878",
"X 	c #121212",
"Y 	c #4F4F4F",
"Z 	c #747474",
"` 	c #AEAEAE",
" .	c #CCCCCC",
"..	c #F1F1F1",
"+.	c #222222",
"@.	c #2A2A2A",
"#.	c #6A6A6A",
"$.	c #B9B9B9",
"%.	c #ACACAC",
"  . .                                           ",
". + @ . . . . . . . .                         . ",
". # $ . % & * = - ; > , . .             . . ' . ",
". # $ . ) ! ~ { ] - ^ / ( _ : . . . < [ } | 1 . ",
". # $ . 2 ! 3 | ] 4 5 6 > 7 8 9 0 { a b 1 c d . ",
". # $ . 2 ! * | e f g h . . . . i { a b 1 c j . ",
". # $ . ) k * l 0 m n . n o p . . q a b 1 c c . ",
". # $ . ) k b r s m t u v 5 - w . x a b 1 c c . ",
". # $ . ) y = a s z 5 6 v 5 A . . B a b 1 c C . ",
". # $ . D - E a F G 5 6 v H . . I { a b 1 c C . ",
". # $ . J 4 E K L G 5 M N . . O 0 { a b 1 c C . ",
". # $ . / 4 P K | | g h . n Q z 0 { a b 1 c R . ",
". # $ . / f 1 K K | 7 . S 5 - z 0 { a b 1 c C . ",
". # $ . / m 1 K | | . . T 5 - z 0 { a b 1 c c . ",
". # $ . U m V * | 0 . . . . . . : B a b 1 c j . ",
". # $ . U z d * l F i . . . . . . q a b 1 c b . ",
". # $ . W . . . X Y Z `  .b ~ r 3 b E ..E a ( . ",
". # $ .               +.@.#.$.- 3 * l ! %.. .   ",
". # $ .                     . . . . . .         ",
". # $ .                                         ",
". # $ .                                         ",
". # $ .                                         ",
". # $ .                                         ",
". # $ .                                         "};
/* XPM */
static char * resign_n_xpm[] = {
"24 24 85 1",
" 	c None",
".	c #000000",
"+	c #A8B5A5",
"@	c #667860",
"#	c #708569",
"$	c #51664A",
"%	c #9C9C9C",
"&	c #C5C5C5",
"*	c #E9E9E9",
"=	c #EBEBEB",
"-	c #D4D4D4",
";	c #C4C4C4",
">	c #717171",
",	c #2F2F2F",
"'	c #808080",
")	c #BEBEBE",
"!	c #D1D1D1",
"~	c #E7E7E7",
"{	c #E1E1E1",
"]	c #DBDBDB",
"^	c #CECECE",
"/	c #C1C1C1",
"(	c #9F9F9F",
"_	c #919191",
":	c #313131",
"<	c #353535",
"[	c #797979",
"}	c #B7B7B7",
"|	c #E2E2E2",
"1	c #EEEEEE",
"2	c #BDBDBD",
"3	c #E8E8E8",
"4	c #D5D5D5",
"5	c #CFCFCF",
"6	c #C7C7C7",
"7	c #B4B4B4",
"8	c #5C5C5C",
"9	c #8D8D8D",
"0	c #D8D8D8",
"a	c #DDDDDD",
"b	c #E5E5E5",
"c	c #EAEAEA",
"d	c #F3F3F3",
"e	c #F0F0F0",
"f	c #DCDCDC",
"g	c #D6D6D6",
"h	c #B1B1B1",
"i	c #171717",
"j	c #464646",
"k	c #F2F2F2",
"l	c #D2D2D2",
"m	c #E3E3E3",
"n	c #D7D7D7",
"o	c #A1A1A1",
"p	c #E4E4E4",
"q	c #DEDEDE",
"r	c #161616",
"s	c #D3D3D3",
"t	c #878787",
"u	c #F4F4F4",
"v	c #BFBFBF",
"w	c #ECECEC",
"x	c #DFDFDF",
"y	c #D9D9D9",
"z	c #C0C0C0",
"A	c #E6E6E6",
"B	c #E0E0E0",
"C	c #EDEDED",
"D	c #F5F5F5",
"E	c #C2C2C2",
"F	c #EFEFEF",
"G	c #AAAAAA",
"H	c #ACACAC",
"I	c #ABABAB",
"J	c #787878",
"K	c #121212",
"L	c #4F4F4F",
"M	c #747474",
"N	c #AEAEAE",
"O	c #CCCCCC",
"P	c #F1F1F1",
"Q	c #222222",
"R	c #2A2A2A",
"S	c #6A6A6A",
"T	c #B9B9B9",
" ..                     ",
".+@........            .",
".#$.%&*=-;>,..      ..'.",
".#$.)!~{]-^/(_:...<[}|1.",
".#$.2!3|]4567890a{bc1de.",
".#$.2!*|fg5hi.j0a{bc1dk.",
".#$.)l*mano...j0a{bc1dd.",
".#$.)lcpqnori.j0a{bc1dd.",
".#$.)s=bq056t.j0a{bc1du.",
".#$.v-wbxy56t.j0a{bc1du.",
".#$.z4wABy56t.j0a{bc1du.",
".#$./4CA||56t.j0a{bc1dD.",
".#$./g1AA|56t.j0a{bc1du.",
".#$./n1A||56t.j0a{bc1dd.",
".#$.EnF*|aGr....H{bc1dk.",
".#$.E0e*mxI.....H{bc1dc.",
".#$.J...KLMNOc~p3cwPwb(.",
".#$.       QRST-3*m!H.. ",
".#$.          ......    ",
".#$.                    ",
".#$.                    ",
".#$.                    ",
".#$.                    ",
".#$.                    "};
