/* XPM */
static char * stock_edit_xpm[] = {
"24 24 184 2",
"  	c None",
". 	c #000000",
"+ 	c #D3D3D3",
"@ 	c #F6F6F6",
"# 	c #FFFFFF",
"$ 	c #F9F9F9",
"% 	c #DADADA",
"& 	c #585858",
"* 	c #C7C7C7",
"= 	c #D1D1D1",
"- 	c #D6D6D6",
"; 	c #FEFEFE",
"> 	c #FDFDFD",
", 	c #C0C0C0",
"' 	c #E1E1E1",
") 	c #F0F0F0",
"! 	c #9B9B9B",
"~ 	c #FBE73B",
"{ 	c #F2B64D",
"] 	c #FCFCFB",
"^ 	c #FBFBFB",
"/ 	c #AFAFAE",
"( 	c #E9E9E9",
"_ 	c #DEDEDE",
": 	c #FCEB3D",
"< 	c #F7B544",
"[ 	c #60532D",
"} 	c #686868",
"| 	c #6A6A6A",
"1 	c #9C9C9C",
"2 	c #C2C2C1",
"3 	c #7C7C7C",
"4 	c #505050",
"5 	c #808080",
"6 	c #FAFAF9",
"7 	c #F9F9F8",
"8 	c #A4A4A3",
"9 	c #FCE93B",
"0 	c #F7B545",
"a 	c #6C5F34",
"b 	c #F8F8F7",
"c 	c #F8F7F6",
"d 	c #9E9E9E",
"e 	c #FAE43A",
"f 	c #F4B244",
"g 	c #504627",
"h 	c #F7F6F5",
"i 	c #F6F6F4",
"j 	c #F3F2F1",
"k 	c #F9DF39",
"l 	c #F3AF42",
"m 	c #5D5132",
"n 	c #44423D",
"o 	c #7F7F7F",
"p 	c #747474",
"q 	c #929291",
"r 	c #797878",
"s 	c #989897",
"t 	c #F5F4F3",
"u 	c #F9DC38",
"v 	c #EFB44D",
"w 	c #665A32",
"x 	c #787876",
"y 	c #67645D",
"z 	c #F4F3F2",
"A 	c #F3F3F1",
"B 	c #F2F2F0",
"C 	c #F8D837",
"D 	c #F0A93F",
"E 	c #655930",
"F 	c #939291",
"G 	c #979695",
"H 	c #7D7971",
"I 	c #F6F5F4",
"J 	c #F5F5F3",
"K 	c #F1F1EF",
"L 	c #F6D236",
"M 	c #EDA43E",
"N 	c #5C5230",
"O 	c #9C9B9A",
"P 	c #AFAEAC",
"Q 	c #B9B8B5",
"R 	c #878279",
"S 	c #868585",
"T 	c #717170",
"U 	c #707070",
"V 	c #9F9F9E",
"W 	c #CFCFCD",
"X 	c #EFEEEC",
"Y 	c #E9E8E6",
"Z 	c #D7AE74",
"` 	c #61562F",
" .	c #9C9B99",
"..	c #AEADAB",
"+.	c #C6C5C3",
"@.	c #D8D6D3",
"#.	c #959086",
"$.	c #F0F0EE",
"%.	c #EFEFED",
"&.	c #F1F0EE",
"*.	c #EDECEA",
"=.	c #4F4115",
"-.	c #9E9D9C",
";.	c #C8C7C4",
">.	c #D9D8D5",
",.	c #DFDDDA",
"'.	c #A49E93",
").	c #EEEDEB",
"!.	c #ECEBE9",
"~.	c #E4E3E1",
"{.	c #9D9C9B",
"].	c #9F9E9C",
"^.	c #B0AFAD",
"/.	c #C7C6C3",
"(.	c #D9D7D4",
"_.	c #DFDEDA",
":.	c #E0DFDB",
"<.	c #A19C90",
"[.	c #EDEDEB",
"}.	c #797978",
"|.	c #747473",
"1.	c #6F6E6D",
"2.	c #898988",
"3.	c #434342",
"4.	c #7C7C7A",
"5.	c #A6A5A3",
"6.	c #A9A8A6",
"7.	c #B3B2B0",
"8.	c #CAC9C6",
"9.	c #DAD9D5",
"0.	c #DDDCD8",
"a.	c #DEDDD9",
"b.	c #A19B90",
"c.	c #EBEAE8",
"d.	c #E8E7E5",
"e.	c #E8E7E4",
"f.	c #E6E5E2",
"g.	c #D7D6D3",
"h.	c #BFBEBB",
"i.	c #B7B7B4",
"j.	c #C7C5C2",
"k.	c #D1D0CC",
"l.	c #DBDAD7",
"m.	c #DCDBD7",
"n.	c #E7E6E3",
"o.	c #E5E4E1",
"p.	c #E5E3E0",
"q.	c #D6D4D2",
"r.	c #D4D3D0",
"s.	c #DBD9D5",
"t.	c #D9D7D3",
"u.	c #9F998D",
"v.	c #E4E3E0",
"w.	c #E3E2DF",
"x.	c #E3E2DE",
"y.	c #E4E2DF",
"z.	c #E4E3DF",
"A.	c #E2E1DD",
"B.	c #E1E0DC",
"C.	c #DDDBD7",
"D.	c #DCDAD6",
"E.	c #D8D6D2",
"F.	c #9E988D",
"G.	c #EDEDED",
"H.	c #E1E0DD",
"I.	c #E1DFDC",
"J.	c #E0DEDA",
"K.	c #D8D6D1",
"L.	c #D7D5D1",
"M.	c #9D978B",
"N.	c #E1DFDB",
"O.	c #DEDCD8",
"P.	c #D7D6D1",
"Q.	c #D5D3CE",
"R.	c #9B958A",
"S.	c #999891",
"T.	c #A39E92",
"U.	c #A39D92",
"V.	c #A39D91",
"W.	c #A29C90",
"X.	c #A19B8F",
"Y.	c #9D978C",
"Z.	c #9B968A",
"`.	c #676359",
"                                                ",
"      . . . . . . . . . . . . .                 ",
"    . + @ # # # # # # # # $ % & .               ",
"    . @ # # # # # # # # # # * = - .     . .     ",
"    . # # # # # # # ; # ; > , ' ) ! . . ~ { .   ",
"    . # # # # # ; > ] > ] ^ / ( # _ . : < [ .   ",
"    . # # } | 1 2 3 4 5 6 7 8 ) ; . 9 0 a .     ",
"    . # ; > ] ^ 6 7 b 7 b c d . . e f g . .     ",
"    . # ] ^ 6 7 b c h c h i j . k l m . n .     ",
"    . # 6 o p q 8 i r s t j . u v w . x y .     ",
"    . # b c h i t z A z B . C D E . F G H .     ",
"    . # I J z z A B K K . L M N . O P Q R .     ",
"    . # z S T U V W X Y . Z ` .  ...+.@.#..     ",
"    . # z j B $.%.&.*.. =.. . -.P ;.>.,.'..     ",
"    . # $.%.%.X ).!.~.. . {.].^./.(._.:.<..     ",
"    . # [.}.|.1.1.2.3.4.5.6.7.8.9.0.a.0.b..     ",
"    . # c.Y Y d.e.f.g.h.i.j.k.l._.a.0.m.b..     ",
"    . # n.f.f.f.o.p.a.q.r.l._._.a.m.s.t.u..     ",
"    . $ v.w.x.y.z.A.A.:.B.:.B.a.C.D.t.E.F..     ",
"    . G.H.I.B.:.A.:.B.:.B._.J.C.D.t.K.L.M..     ",
"    . = N.J._.a.:.a.J.a.J.O.O.D.D.E.P.Q.R..     ",
"    . S.T.'.U.V.U.<.W.<.W.X.b.u.u.Y.Y.Z.`..     ",
"      . . . . . . . . . . . . . . . . . .       ",
"                                                "};
