/* XPM */
static char * stock_import_xpm[] = {
"24 24 175 2",
"  	c None",
". 	c #000000",
"+ 	c #B5B8A5",
"@ 	c #E4E7D2",
"# 	c #878A76",
"$ 	c #33342B",
"% 	c #0B0B0B",
"& 	c #E2E5CF",
"* 	c #CFD4AF",
"= 	c #CED3AE",
"- 	c #B2B696",
"; 	c #2D2D25",
"> 	c #22231C",
", 	c #9D9F90",
"' 	c #C6CAA6",
") 	c #C4C9A5",
"! 	c #C6CBA7",
"~ 	c #C7CCA8",
"{ 	c #C9CEA9",
"] 	c #555847",
"^ 	c #191A15",
"/ 	c #20201A",
"( 	c #D4D6C2",
"_ 	c #BEC2A0",
": 	c #B3B896",
"< 	c #B0B595",
"[ 	c #B3B797",
"} 	c #B6BB99",
"| 	c #BBC09E",
"1 	c #BCC19F",
"2 	c #81856C",
"3 	c #3E3F32",
"4 	c #23241D",
"5 	c #DADDC8",
"6 	c #AFB494",
"7 	c #AAAF8F",
"8 	c #A3A789",
"9 	c #A6AA8B",
"0 	c #A9AD8E",
"a 	c #A7AB8D",
"b 	c #A4A88A",
"c 	c #A1A588",
"d 	c #AAAD96",
"e 	c #B3B5A5",
"f 	c #B8BBAA",
"g 	c #BABCAB",
"h 	c #C1C3B2",
"i 	c #C7CAB7",
"j 	c #CACDBB",
"k 	c #BABDA8",
"l 	c #0C0C09",
"m 	c #DDDFCB",
"n 	c #969B7E",
"o 	c #9DA286",
"p 	c #95987C",
"q 	c #96997E",
"r 	c #9A9D81",
"s 	c #999D80",
"t 	c #9DA184",
"u 	c #A5AA8B",
"v 	c #A4A98A",
"w 	c #A3A889",
"x 	c #A2A588",
"y 	c #A2A587",
"z 	c #9FA386",
"A 	c #9B9E83",
"B 	c #898D74",
"C 	c #D8DBC9",
"D 	c #84866E",
"E 	c #7D8169",
"F 	c #151612",
"G 	c #D7DAC9",
"H 	c #797D67",
"I 	c #3D3F34",
"J 	c #E0E0D9",
"K 	c #EBEDDD",
"L 	c #E8EBD9",
"M 	c #E7EAD8",
"N 	c #E3E6D4",
"O 	c #DEE1D0",
"P 	c #DADCCC",
"Q 	c #DADCD1",
"R 	c #2B2C28",
"S 	c #D7DAC6",
"T 	c #6F735E",
"U 	c #0D0D0D",
"V 	c #F4F4EC",
"W 	c #010101",
"X 	c #C6CBA8",
"Y 	c #C2C6A4",
"Z 	c #ABB091",
"` 	c #23251E",
" .	c #494B3D",
"..	c #DCDCD4",
"+.	c #EAECDD",
"@.	c #CDD2AD",
"#.	c #0A0A08",
"$.	c #050504",
"%.	c #BAB9B6",
"&.	c #090908",
"*.	c #090907",
"=.	c #6F715D",
"-.	c #080806",
";.	c #D5D8C4",
">.	c #161616",
",.	c #F2F2EA",
"'.	c #CACFAB",
").	c #CACFAA",
"!.	c #C9CEAA",
"~.	c #878883",
"{.	c #727270",
"].	c #484641",
"^.	c #9F9D96",
"/.	c #888781",
"(.	c #23241E",
"_.	c #040403",
":.	c #0D0D0A",
"<.	c #B6B8A7",
"[.	c #747470",
"}.	c #ECECE2",
"|.	c #C3C8A5",
"1.	c #C2C7A4",
"2.	c #C0C5A2",
"3.	c #BFC4A1",
"4.	c #C8C7C2",
"5.	c #B6B5AF",
"6.	c #908E86",
"7.	c #97958E",
"8.	c #807D74",
"9.	c #A6A998",
"0.	c #B8BC9B",
"a.	c #B5B999",
"b.	c #AFB394",
"c.	c #8C8F76",
"d.	c #080907",
"e.	c #595854",
"f.	c #605E57",
"g.	c #898883",
"h.	c #76746B",
"i.	c #030303",
"j.	c #9E9F91",
"k.	c #E5E6DA",
"l.	c #ADB192",
"m.	c #A9AD8F",
"n.	c #A6AA8C",
"o.	c #A5A98C",
"p.	c #A3A78A",
"q.	c #43423F",
"r.	c #282724",
"s.	c #363430",
"t.	c #6D6B63",
"u.	c #E3E5D9",
"v.	c #C0C3AF",
"w.	c #94987C",
"x.	c #8F9379",
"y.	c #8B8F75",
"z.	c #8A8E74",
"A.	c #888C73",
"B.	c #858970",
"C.	c #010100",
"D.	c #8C8B89",
"E.	c #21201E",
"F.	c #0A0908",
"G.	c #181816",
"H.	c #E6E6E4",
"I.	c #65635C",
"J.	c #161614",
"K.	c #DFDEDC",
"L.	c #B0AFA9",
"M.	c #D5D4D1",
"N.	c #93918B",
"O.	c #ABA9A3",
"P.	c #5D5C55",
"Q.	c #494943",
"R.	c #42413C",
"                                                ",
"                                                ",
"    . . . . . . .                               ",
"  . + @ @ @ @ @ # $                             ",
"  % & * * * = = - ;                             ",
"> , & ' ) ! ~ { { ] ^                           ",
"/ ( _ : < [ } | 1 2 3 . . . . . . . .           ",
"4 5 6 7 8 9 7 0 a b c d e f g h i j k .         ",
"l m n o p q r s q t u v w x 8 y z A B .         ",
". C D E F . . . . . . . . . . . . . . . . .     ",
". G H I J K L L L L L L L L L L L M N O P Q R   ",
". S T U V * * * * * * * * * = W W W X Y | Z `   ",
". S  ...+.@.= = @.= @.< #.#.b $.%.$.A &.*.=.-.  ",
". ;.>.,.'.).'.).!.).!.#.~.{.#.].^.].*./.(._.:.  ",
". <.[.}.|.1.1.Y 2.Y 3.&.4.5.^.^.^.6.7.8.]..     ",
". 9...0.0.a.[ [ < < b.c.d.^.^.e.f.g.8.h.i.$.    ",
". j.k.l.m.n.o.p.p.c W W ].^.f.q.r.s.^.t.].W .   ",
". u.v.w.x.y.z.A.A.B.C.D.5.^.e.E.F.G.H.8.I.f..   ",
"  . . . . . . . . . . . ].^.g.s.J.D.K.I.].. .   ",
"                        C.L.8.5.H.M.N.I..       ",
"                      . 5.O.^.8.8.h.h.P.]..     ",
"                      . W e.. ].h.].. Q.. .     ",
"                        . .   . R..   . .       ",
"                              . . .             "};
