/* XPM */
static char *stock_undo_16_xpm[] = {
/* columns rows colors chars-per-pixel */
"16 16 35 1",
"  c black",
". c gray19",
"X c #986b07",
"o c #847645",
"O c #8d7e4a",
"+ c #b8820a",
"@ c #b1933f",
"# c #96864f",
"$ c #948a6f",
"% c #a39256",
"& c #bc9f5f",
"* c #bda46d",
"= c #d1940c",
"- c #d59d1c",
"; c #d9a72e",
": c #c0a048",
"> c #dfb74a",
", c #d2b050",
"< c #c0ac66",
"1 c #c3a970",
"2 c #cbb66c",
"3 c #e0b74c",
"4 c #d9c374",
"5 c #e2cb79",
"6 c #eed680",
"7 c #f1dd97",
"8 c #efe5ba",
"9 c #f4e4ad",
"0 c #efe4c2",
"q c #f7eecc",
"w c #f7f3df",
"e c #f2efe4",
"r c #f9f5e5",
"t c #f9f6ea",
"y c None",
/* pixels */
"yyyyyy yyyyyyyyy",
"yyyyy  yyyyyyyyy",
"yyyy w yyyyyyyyy",
"yyy t6     yyyyy",
"yy.r669q0$  yyyy",
"y r7666666,  yyy",
" e766666666: yyy",
"y 1======>64  yy",
"yy *======-6% yy",
"yyy *=   X=>2 yy",
"yyyy & y  +;5 yy",
"yyyyy  yy  =6 yy",
"yyyyyy yyy ,& yy",
"yyyyyyyyy  5  yy",
"yyyyyyyyy 2O yyy",
"yyyyyyyyy    yyy"
};
