/* XPM */
static char * stock_new_money_xpm[] = {
"24 24 158 2",
"  	c None",
". 	c #000000",
"+ 	c #D3D3D3",
"@ 	c #F6F6F6",
"# 	c #FFFFFF",
"$ 	c #F9F9F9",
"% 	c #DADADA",
"& 	c #585858",
"* 	c #C7C7C7",
"= 	c #D1D1D1",
"- 	c #D6D6D6",
"; 	c #717171",
"> 	c #C6C6C6",
", 	c #FDFDFD",
"' 	c #C0C0C0",
") 	c #E1E1E1",
"! 	c #F0F0F0",
"~ 	c #9B9B9B",
"{ 	c #FEFEFE",
"] 	c #545453",
"^ 	c #A8A8A7",
"/ 	c #FBFBFB",
"( 	c #AFAFAE",
"_ 	c #E9E9E9",
": 	c #DFDFDF",
"< 	c #8F8F8F",
"[ 	c #FCFCFB",
"} 	c #A7A7A7",
"| 	c #1C1C1C",
"1 	c #494948",
"2 	c #D5D5D5",
"3 	c #F4F4F4",
"4 	c #CFCFCF",
"5 	c #A2A2A2",
"6 	c #535353",
"7 	c #FAFAF9",
"8 	c #6F6F6E",
"9 	c #373736",
"0 	c #373636",
"a 	c #A4A4A3",
"b 	c #BFBFBE",
"c 	c #A2A2A1",
"d 	c #DEDDDC",
"e 	c #D3D2D0",
"f 	c #B7B7B5",
"g 	c #9F9E9D",
"h 	c #706F6F",
"i 	c #65625A",
"j 	c #F9F9F8",
"k 	c #F8F8F7",
"l 	c #DADAD9",
"m 	c #515151",
"n 	c #A3A2A2",
"o 	c #F4F3F2",
"p 	c #F2F2F0",
"q 	c #E4E4E2",
"r 	c #DAD9D7",
"s 	c #D8D8D6",
"t 	c #CDCCCA",
"u 	c #AFAEAC",
"v 	c #88847B",
"w 	c #F8F7F6",
"x 	c #F7F6F5",
"y 	c #1B1B1B",
"z 	c #6A6A69",
"A 	c #EEEDEB",
"B 	c #EDECEA",
"C 	c #E9E8E6",
"D 	c #D5D4D3",
"E 	c #C4C3C2",
"F 	c #8F8A81",
"G 	c #F6F5F4",
"H 	c #F5F5F3",
"I 	c #D9D8D7",
"J 	c #6C6C6B",
"K 	c #4E4E4D",
"L 	c #EAE9E7",
"M 	c #E5E4E2",
"N 	c #E4E3E0",
"O 	c #D2D1CE",
"P 	c #8D887E",
"Q 	c #F3F2F1",
"R 	c #F0F0EE",
"S 	c #EFEFED",
"T 	c #F1F0EE",
"U 	c #504F4F",
"V 	c #A09F9E",
"W 	c #BAB9B8",
"X 	c #B2B1AF",
"Y 	c #E2E1DE",
"Z 	c #E1DFDC",
"` 	c #979288",
" .	c #EFEEEC",
"..	c #989896",
"+.	c #A49E93",
"@.	c #4F4E4E",
"#.	c #9E9D9C",
"$.	c #838281",
"%.	c #CAC9C6",
"&.	c #E2E0DD",
"*.	c #E1E0DC",
"=.	c #E0DFDB",
"-.	c #A19C90",
";.	c #EDEDEB",
">.	c #B8B7B5",
",.	c #1A1A1A",
"'.	c #807E7D",
").	c #E3E2DE",
"!.	c #DFDEDA",
"~.	c #DEDDD9",
"{.	c #DDDCD8",
"].	c #A19B90",
"^.	c #EBEAE8",
"/.	c #B5B5B3",
"(.	c #4D4C4B",
"_.	c #B1B1AE",
":.	c #DCDBD7",
"<.	c #E7E6E3",
"[.	c #E6E5E2",
"}.	c #999896",
"|.	c #333232",
"1.	c #989895",
"2.	c #E4E3DF",
"3.	c #E2E1DD",
"4.	c #DBD9D5",
"5.	c #D9D7D3",
"6.	c #9F998D",
"7.	c #E3E2DF",
"8.	c #E4E2DF",
"9.	c #4B4B4A",
"0.	c #979694",
"a.	c #DDDBD7",
"b.	c #DCDAD6",
"c.	c #D8D6D2",
"d.	c #9E988D",
"e.	c #EDEDED",
"f.	c #E1E0DD",
"g.	c #969592",
"h.	c #4A4A49",
"i.	c #C8C7C3",
"j.	c #E0DEDA",
"k.	c #D8D6D1",
"l.	c #D7D5D1",
"m.	c #9D978B",
"n.	c #E1DFDB",
"o.	c #DEDCD8",
"p.	c #D7D6D1",
"q.	c #D5D3CE",
"r.	c #9B958A",
"s.	c #999891",
"t.	c #A39E92",
"u.	c #A39D92",
"v.	c #A39D91",
"w.	c #A29C90",
"x.	c #A19B8F",
"y.	c #9D978C",
"z.	c #9B968A",
"A.	c #676359",
"                                                ",
"      . . . . . . . . . . . . .                 ",
"    . + @ # # # # # # # # $ % & .               ",
"    . @ # # # # # # # # # # * = - .             ",
"    . # # # # # # # ; . > , ' ) ! ~ .           ",
"    . # # # # # { , ] . ^ / ( _ # : < .         ",
"    . # # # { , [ } | . . | 1 2 # 3 4 5 .       ",
"    . # { , [ / 6 . . . . . . . . . . . . .     ",
"    . # [ / 7 8 . 9 0 . a b c d e f g h i .     ",
"    . # 7 j k . . l m . n o p q r s t u v .     ",
"    . # k w x y . . . . . y z A B C D E F .     ",
"    . # G H o I J y . . . . . K L M N O P .     ",
"    . # o Q p R S T U . V W . . X N Y Z ` .     ",
"    . # o Q p R S T U . V  .K . ..N Y Z +..     ",
"    . # R S S  .A B @.. #.$.. . %.&.*.=.-..     ",
"    . # ;.B >.. ,.K ,.. . . . '.).!.~.{.]..     ",
"    . # ^.C /.,.. . . . . (._.).=.~.{.:.]..     ",
"    . # <.[.[.[...}.|.. 1.2.3.=.~.:.4.5.6..     ",
"    . $ N 7.).8.2.3.9.. 0.*.*.~.a.b.5.c.d..     ",
"    . e.f.Z *.=.3.=.g.h.i.!.j.a.b.5.k.l.m..     ",
"    . = n.j.!.~.=.~.j.~.j.o.o.b.b.c.p.q.r..     ",
"    . s.t.+.u.v.u.-.w.-.w.x.].6.6.y.y.z.A..     ",
"      . . . . . . . . . . . . . . . . . .       ",
"                                                "};
