/* XPM */
static char * stock_export_xpm[] = {
"24 24 239 2",
"  	c None",
". 	c #000000",
"+ 	c #BAB9B6",
"@ 	c #6D6D6D",
"# 	c #727270",
"$ 	c #484641",
"% 	c #9F9D96",
"& 	c #888781",
"* 	c #C3D7F4",
"= 	c #A9CDE5",
"- 	c #75757A",
"; 	c #EFC5BB",
"> 	c #F1C8BE",
", 	c #F0C6BC",
"' 	c #EEBCB2",
") 	c #EEBEB5",
"! 	c #EEC1B8",
"~ 	c #EDBFB6",
"{ 	c #0B0908",
"] 	c #C8C7C2",
"^ 	c #B6B5AF",
"/ 	c #908E86",
"( 	c #97958E",
"_ 	c #807D74",
": 	c #BBD6E8",
"< 	c #8AAAC5",
"[ 	c #605F68",
"} 	c #E08D7E",
"| 	c #E0826E",
"1 	c #E0806E",
"2 	c #DC7A68",
"3 	c #DC8171",
"4 	c #DA7868",
"5 	c #D48173",
"6 	c #A96458",
"7 	c #0A0505",
"8 	c #595854",
"9 	c #605E57",
"0 	c #898883",
"a 	c #76746B",
"b 	c #BAD5E9",
"c 	c #88A7C3",
"d 	c #686670",
"e 	c #C8817B",
"f 	c #CB7C74",
"g 	c #CB7A73",
"h 	c #CB7B73",
"i 	c #CC7C72",
"j 	c #CB7D73",
"k 	c #010000",
"l 	c #43423F",
"m 	c #282724",
"n 	c #363430",
"o 	c #6D6B63",
"p 	c #B6D3E7",
"q 	c #87ABC1",
"r 	c #737373",
"s 	c #FFFFFF",
"t 	c #020202",
"u 	c #8C8B89",
"v 	c #21201E",
"w 	c #0A0908",
"x 	c #181816",
"y 	c #E6E6E4",
"z 	c #65635C",
"A 	c #B9D3E7",
"B 	c #85A4BF",
"C 	c #070707",
"D 	c #161614",
"E 	c #DFDEDC",
"F 	c #B9D3E6",
"G 	c #84A3BF",
"H 	c #CECECE",
"I 	c #CDCDCD",
"J 	c #A4A4A4",
"K 	c #0A0A0A",
"L 	c #B0AFA9",
"M 	c #D5D4D1",
"N 	c #93918B",
"O 	c #B7D2E7",
"P 	c #82A0BB",
"Q 	c #636363",
"R 	c #0D0D0D",
"S 	c #ABA9A3",
"T 	c #5D5C55",
"U 	c #B5CAE5",
"V 	c #7FA2B9",
"W 	c #3A3A3A",
"X 	c #060809",
"Y 	c #494943",
"Z 	c #AECCE5",
"` 	c #7DA0B6",
" .	c #B0B0B0",
"..	c #161616",
"+.	c #42413C",
"@.	c #0C0C0C",
"#.	c #6C8294",
"$.	c #040405",
"%.	c #B0D1E4",
"&.	c #83A1B6",
"*.	c #735B5B",
"=.	c #141414",
"-.	c #090909",
";.	c #83A0B8",
">.	c #515C64",
",.	c #AACEE3",
"'.	c #7B9BB2",
").	c #7A8E9A",
"!.	c #7A7A7A",
"~.	c #6B6F72",
"{.	c #6F6F6F",
"].	c #696969",
"^.	c #6F777E",
"/.	c #86A2B9",
"(.	c #3A515D",
"_.	c #A9C9E2",
":.	c #7494AF",
"<.	c #819EB6",
"[.	c #829FB7",
"}.	c #7F9DB6",
"|.	c #7E9CB5",
"1.	c #7998B2",
"2.	c #85A1B8",
"3.	c #87A3BA",
"4.	c #8CA7BD",
"5.	c #8AA5BB",
"6.	c #364A59",
"7.	c #ABC4E2",
"8.	c #7294AD",
"9.	c #6F90AC",
"0.	c #7192AE",
"a.	c #414A4E",
"b.	c #424A51",
"c.	c #525B63",
"d.	c #626F79",
"e.	c #5F6C76",
"f.	c #5C6971",
"g.	c #5A666F",
"h.	c #58636B",
"i.	c #57636A",
"j.	c #3B5360",
"k.	c #39424B",
"l.	c #7897B3",
"m.	c #A4B9CB",
"n.	c #364853",
"o.	c #AAC9E2",
"p.	c #7091AA",
"q.	c #6F8FA7",
"r.	c #4A5359",
"s.	c #97938C",
"t.	c #DFDDDA",
"u.	c #E3E1DE",
"v.	c #EBEAE8",
"w.	c #EAE9E7",
"x.	c #CFCEC9",
"y.	c #C9C6C0",
"z.	c #9B968E",
"A.	c #566168",
"B.	c #4B657A",
"C.	c #54738C",
"D.	c #AAC6DD",
"E.	c #34464E",
"F.	c #AAC9E1",
"G.	c #6C8EA6",
"H.	c #6C8CA4",
"I.	c #40474D",
"J.	c #DAD8D3",
"K.	c #E7E6E2",
"L.	c #67655E",
"M.	c #524F47",
"N.	c #D9D7D4",
"O.	c #C7C5BF",
"P.	c #C0BCB5",
"Q.	c #B8B3AB",
"R.	c #434C54",
"S.	c #4D697F",
"T.	c #4F6F84",
"U.	c #B3CADC",
"V.	c #313E49",
"W.	c #A8C8E1",
"X.	c #6B8DA6",
"Y.	c #728FA4",
"Z.	c #E2E1DD",
"`.	c #F0EFEC",
" +	c #CDCAC6",
".+	c #C2BFB9",
"++	c #CAC6C0",
"@+	c #DCDAD7",
"#+	c #4B555D",
"$+	c #4E697F",
"%+	c #BACCDC",
"&+	c #A4C4DE",
"*+	c #698BA3",
"=+	c #708AA1",
"-+	c #383E43",
";+	c #E0DEDA",
">+	c #514E46",
",+	c #4F4C44",
"'+	c #C7C4BE",
")+	c #CBC8C2",
"!+	c #E1E0DC",
"~+	c #E9E8E6",
"{+	c #475158",
"]+	c #4E6879",
"^+	c #4D6C80",
"/+	c #A3C3DB",
"(+	c #383F43",
"_+	c #778999",
":+	c #6E899E",
"<+	c #65859C",
"[+	c #33383C",
"}+	c #D7D4D0",
"|+	c #D6D4D0",
"1+	c #4E4A43",
"2+	c #4D4942",
"3+	c #D1CEC9",
"4+	c #E6E5E2",
"5+	c #EDECEA",
"6+	c #454F55",
"7+	c #486173",
"8+	c #4D6678",
"9+	c #A1C1DA",
"0+	c #373C40",
"a+	c #0C0D0F",
"b+	c #4E5E6A",
"c+	c #5B6E7C",
"d+	c #4F5B62",
"e+	c #A4A099",
"f+	c #CCC9C3",
"g+	c #D7D5D1",
"h+	c #E4E2E0",
"i+	c #DDDBD7",
"j+	c #B8B5B0",
"k+	c #3E474D",
"l+	c #4A6176",
"m+	c #4A6070",
"n+	c #9BC3D8",
"o+	c #363C41",
"p+	c #28323E",
"                                . . .           ",
"                          . .   . + .   . .     ",
"    . . . . . . . . . . . @ # . $ % $ . & . .   ",
"  . * = - ; > , ' ) ! ~ { ] ^ % % % / ( _ $ .   ",
"  . : < [ } | 1 2 3 4 5 6 7 % % 8 9 0 _ a .     ",
"  . b c d e f g h i j k k $ % 9 l m n % o $ . . ",
"  . p q r s s s s s s t u ^ % 8 v w x y _ z 9 . ",
"  . A B r s s s s s s t C $ % 0 n D u E z $ . . ",
"  . F G r H I I I I I I J K L _ ^ y M N z .     ",
"  . O P Q s s s s s s s R ^ S % _ _ a a T $ .   ",
"  . U V r s s s s s s s R W 8 K $ a $ X Y . .   ",
"  . Z ` r H I I I I I I  .K K J ..+.@.#.$..     ",
"  . %.&.*.s s s s s s s s s s s ..=.-.;.>..     ",
"  . ,.'.).!.r r r r r ~.{.r r r r ].^./.(..     ",
"  . _.:.<.;./.[.}.|.[.1./.2.2.3.[.4.;.5.6..     ",
"  . 7.8.9.0.a.b.c.d.e.f.g.h.i.c.j.k.l.m.n..     ",
"  . o.p.q.r.s.t.u.v.v.w.t.x.y.z.A.B.C.D.E..     ",
"  . F.G.H.I.J.K.L.M.M.N.O.P.Q.x.R.S.T.U.V..     ",
"  . W.X.Y.I.Z.`.L.M.M. +.+P.++@+#+$+T.%+V..     ",
"  . &+*+=+-+;+v.>+,+,+'+P.)+!+~+{+]+^+/+(+.     ",
"  . _+:+<+[+}+|+1+2+2+P.3+4+5+4+6+7+8+9+0+.     ",
"    a+b+c+d+e+P.Q.f+f+g+h+w.i+j+k+l+m+n+o+.     ",
"      . . . . . . . . . . . . . . . . p+.       ",
"                                                "};
