/* XPM */
static char *tb_anticlockwise_xpm[] = {
/* columns rows colors chars-per-pixel */
"24 24 35 1",
"  c black",
". c #1c0001",
"X c #200001",
"o c #301501",
"O c #585858",
"+ c #656565",
"@ c #727272",
"# c #7f7f80",
"$ c #7f807f",
"% c #b00f13",
"& c #be2110",
"* c #807f7f",
"= c #ff0309",
"- c #fd7303",
"; c #807f80",
": c #80807f",
"> c #e88b3f",
", c #8c8c8c",
"< c #999999",
"1 c #a7a6a6",
"2 c #b3b3b3",
"3 c gray75",
"4 c #bfc0c0",
"5 c #c0bfbf",
"6 c #c0bfc0",
"7 c #c0c0bf",
"8 c #c0c0c0",
"9 c #cbcbcb",
"0 c #d6d6d6",
"q c #deddda",
"w c #e0e0e0",
"e c #e9e9e9",
"r c #f2f1f1",
"t c #fefefe",
"y c None",
/* pixels */
"yyyyyyyyyyyyyyyyyyyyyyyy",
"yyyyyyyyyy      yyyyyyyy",
"yyyyyyyy  tttttt  yyyyyy",
"yyyyy==.ttttttttre yyyyy",
"yyyy==X tttttttrew0 yyyy",
"yyy== tt  tttrrew096 yyy",
"yyy== tt  tttreq0932 yyy",
"yy=- ttttt rrew09821< yy",
"yy=- tttttt ew09321<, yy",
"yy=- tttttre  9721<,@ yy",
"yy=- tttrrew  721<<@@ yy",
"yy=- tttrew 9321<,;@@ yy",
"yy=- ttee  9821<<$@+O yy",
"yy%=- rew  821<,@@+O yyy",
"yyy=- eq 9821&&&&&&&&%yy",
"yyy%=- 09821<&>>>>>>>%yy",
"yyyy%=- 621<,;&>>>>>-%yy",
"yyyyy%=-  <,:@+&>>>--%yy",
"yyyyyy%=--    o>>---&yyy",
"yyyyyyy%%&-------&--&yyy",
"yyyyyyyyy&&&&&&&&&--&yyy",
"yyyyyyyyyyyyyyyyyy&&yyyy",
"yyyyyyyyyyyyyyyyyy&yyyyy",
"yyyyyyyyyyyyyyyyyyyyyyyy"
};
