/* XPM */
static char *tb_clockwise_xpm[] = {
/* columns rows colors chars-per-pixel */
"24 24 34 1",
"  c black",
". c #1c0001",
"X c #200001",
"o c #301501",
"O c #2e651a",
"+ c #4b4b4b",
"@ c #5b5a57",
"# c #585858",
"$ c #656565",
"% c #727272",
"& c #7f7f80",
"* c #2cc256",
"= c #5daa43",
"- c #7f807f",
"; c #807f7f",
": c #807f80",
"> c #80807f",
", c #88dd3d",
"< c #8c8c8c",
"1 c #999999",
"2 c #a7a6a6",
"3 c #b3b3b3",
"4 c gray75",
"5 c #bfc0c0",
"6 c #c0bfbf",
"7 c #c0c0bf",
"8 c #c0c0c0",
"9 c #cbcbcb",
"0 c #d6d6d6",
"q c #e0e0e0",
"w c #e9e9e9",
"e c #f2f1f1",
"r c #fefefe",
"t c None",
/* pixels */
"tttttttttttttttttttttttt",
"tttttttttt      tttttttt",
"tttttttt  rrrrrr  tttttt",
"ttttttt.rrrrrrrrew ==ttt",
"ttttttX rrrrrrrewq0 ==tt",
"ttttt rr  rrreewq094 ==t",
"ttttt rr  rrrew00943 ==t",
"tttt rrrrr rewq094321 *=",
"tttt rrrrrr wq094321< *=",
"tttt rrrrrew  97321<% *=",
"tttt rrreewq  7321<%% *=",
"tttt rrrewq 97321<<%$ *=",
"tttt rrww  94321<<%$# *=",
"ttttt ewq  4321<%%$# *=O",
"ttttOOOOOOOOO1<-%$@+ *=t",
"ttttO,,,,,,,O<-%$@+ *=Ot",
"ttttO*,,,,,O<;%$#+ *=Ott",
"ttttO**,,,O<;%$#  *=Ottt",
"tttttO***,,o    **=Otttt",
"tttttO**O*******OOOttttt",
"tttttO**OOOOOOOOOttttttt",
"ttttttOOtttttttttttttttt",
"tttttttOtttttttttttttttt",
"tttttttttttttttttttttttt"
};
