/* XPM */
static char * tb_double_xpm[] = {
"24 24 61 1",
" 	c None",
".	c #B9B9B9",
"+	c #AAAAAA",
"@	c #9F9F9F",
"#	c #666666",
"$	c #D2D2D2",
"%	c #EAEAEA",
"&	c #CBCBCB",
"*	c #B8B8B8",
"=	c #5C5C5C",
"-	c #D1D1D1",
";	c #E5E5E5",
">	c #C2C2C2",
",	c #B0B0B0",
"'	c #585858",
")	c #575757",
"!	c #BDBDC0",
"~	c #8D8DB0",
"{	c #4F4F9B",
"]	c #4C4C9A",
"^	c #C0C0C1",
"/	c #54549D",
"(	c #101086",
"_	c #9191B1",
":	c #6161A1",
"<	c #040481",
"[	c #9090B1",
"}	c #21218B",
"|	c #393994",
"1	c #9292B2",
"2	c #000080",
"3	c #494999",
"4	c #AAAABA",
"5	c #B3B3BD",
"6	c #7F7FAB",
"7	c #5B5B9F",
"8	c #B9B9BF",
"9	c #24248C",
"0	c #1E1E8A",
"a	c #363693",
"b	c #454598",
"c	c #BCBCC0",
"d	c #3C3C95",
"e	c #7C7CAA",
"f	c #ADADBB",
"g	c #303091",
"h	c #9191B2",
"i	c #101085",
"j	c #53539C",
"k	c #B2B2BC",
"l	c #B8B8BF",
"m	c #C3C3C3",
"n	c #D0D0D0",
"o	c #B6B6B6",
"p	c #A5A5A5",
"q	c #515151",
"r	c #8C8C8C",
"s	c #7B7B7B",
"t	c #6F6F6F",
"u	c #616161",
"v	c #393939",
" .++++++++++++++++++++@#",
"$%&&&&&&&&&&&&&&&&&&&&*=",
"-;>>>>>>>>>>>>>>>>>>>>,'",
"-;>>>>>>>>>>>>>>>>>>>>,'",
"-;>>>>>>>>>>>>>>>>>>>>,)",
"-;>>>>>>>>>>>>>>>>>>>>,'",
"-;>>>>>>>>>>>>>>>>>>>>,)",
"-;>>>>>>>>>>>>>>>>>>>>,'",
"-;>>>>>>>>!~{]~^>>>>>>,)",
"-;>>>>>>>>/(_:<[>>>>>>,'",
"-;>>>>>>>>}|>123>>>>>>,)",
"-;>>>>>>>>45>627>>>>>>,'",
"-;>>>>>>>>>>8904>>>>>>,'",
"-;>>>>>>>>>5abc>>>>>>>,'",
"-;>>>>>>>>5dec>f>>>>>>,'",
"-;>>>>>>>>g9:::3>>>>>>,'",
"-;>>>>>>>hiiiiij>>>>>>,'",
"-;>>>>>>>ckkkkkl>>>>>>,)",
"-;>>>>>>>>>>>>>>>>>>>>,'",
"-;>>>>>>>>>>>>>>>>>>>>,'",
"-;>>>>>>>>>>>>>>>>>>>>,'",
"-;>>>>>>>>>>>>>>>>>>>>,'",
"mnoooooooooooooooooooopq",
"rsttttttttttttttttttttuv"};
