/* XPM */
static char * tb_redouble_xpm[] = {
"24 24 67 1",
" 	c None",
".	c #B9B9B9",
"+	c #AAAAAA",
"@	c #9F9F9F",
"#	c #666666",
"$	c #D2D2D2",
"%	c #EAEAEA",
"&	c #CBCBCB",
"*	c #B8B8B8",
"=	c #5C5C5C",
"-	c #D1D1D1",
";	c #E5E5E5",
">	c #C2C2C2",
",	c #B0B0B0",
"'	c #585858",
")	c #C29A9A",
"!	c #C2A9A9",
"~	c #C02020",
"{	c #C15D5D",
"]	c #575757",
"^	c #9494B3",
"/	c #20208B",
"(	c #7171A6",
"_	c #B9B9BF",
":	c #1E1E8A",
"<	c #000080",
"[	c #6161A1",
"}	c #6B6BA4",
"|	c #303090",
"1	c #A1A1B7",
"2	c #29298E",
"3	c #313191",
"4	c #9A9AB4",
"5	c #7979A9",
"6	c #8282AC",
"7	c #8F8FB1",
"8	c #5B5B9F",
"9	c #494999",
"0	c #A4A4B8",
"a	c #3D3D95",
"b	c #313190",
"c	c #8585AD",
"d	c #9E9EB6",
"e	c #5E5EA0",
"f	c #55559D",
"g	c #B0B0BC",
"h	c #C2B0B0",
"i	c #C2AEAE",
"j	c #C15555",
"k	c #C2B8B8",
"l	c #C17979",
"m	c #C02F2F",
"n	c #C2A6A6",
"o	c #C17E7E",
"p	c #C2ABAB",
"q	c #C03434",
"r	c #C2B3B3",
"s	c #C3C3C3",
"t	c #D0D0D0",
"u	c #B6B6B6",
"v	c #A5A5A5",
"w	c #515151",
"x	c #8C8C8C",
"y	c #7B7B7B",
"z	c #6F6F6F",
"A	c #616161",
"B	c #393939",
" .++++++++++++++++++++@#",
"$%&&&&&&&&&&&&&&&&&&&&*=",
"-;>>>>>>>>>>>>>>>>>>>>,'",
"-;>>>>>>>>>>>>>>>))!>>,'",
"-;>>>>>>>>>>>>>>>~~{>>,]",
"-;>>>>>>>>>>>>>>>~~{>>,'",
"-;>>>>>>>>>>>>>>>~~{>>,]",
"-;>>>>>>>>>^/(>>>~~{>>,'",
"-;>>>>>>>>_:<[>>>~~{>>,]",
"-;>>>>>>>>}|<[>>>~~{>>,'",
"-;>>>>>>>12(<[>>>~~{>>,]",
"-;>>>>>>>345<[>>>~~{>>,'",
"-;>>>>>>6/78<90>>~~{>>,'",
"-;>>>>>>5[[a<bc>>~~{>>,'",
"-;>>>>>>>>>5<[>>>~~{>>,'",
"-;>>>>>>>>debfg>>~~{>>,'",
"-;>>>>>>>>>>>>>hi~~jik,'",
"-;>>>>>>>>>>>>>l~~~~mn,]",
"-;>>>>>>>>>>>>>>o~~mp>,'",
"-;>>>>>>>>>>>>>>>lqn>>,'",
"-;>>>>>>>>>>>>>>>>r>>>,'",
"-;>>>>>>>>>>>>>>>>>>>>,'",
"stuuuuuuuuuuuuuuuuuuuuvw",
"xyzzzzzzzzzzzzzzzzzzzzAB"};
