/* XPM */
static char * tb_roll_xpm[] = {
"24 24 48 1",
" 	c None",
".	c #070711",
"+	c #080812",
"@	c #13131E",
"#	c #05050C",
"$	c #12121D",
"%	c #0A0A14",
"&	c #59595C",
"*	c #5C5C61",
"=	c #05050B",
"-	c #0E0E18",
";	c #888888",
">	c #909092",
",	c #080813",
"'	c #0A0A15",
")	c #181821",
"!	c #171720",
"~	c #141420",
"{	c #0C0C16",
"]	c #4E4E52",
"^	c #36363D",
"/	c #1E1E26",
"(	c #969696",
"_	c #7B7B7E",
":	c #090913",
"<	c #34343B",
"[	c #202029",
"}	c #13131C",
"|	c #1C1C24",
"1	c #6F6F71",
"2	c #9A9A9A",
"3	c #13131D",
"4	c #0D0D17",
"5	c #3D3D43",
"6	c #1A1A22",
"7	c #4D4D52",
"8	c #6F6F73",
"9	c #35353B",
"0	c #999999",
"a	c #616165",
"b	c #12121B",
"c	c #55555A",
"d	c #23232C",
"e	c #0F0F19",
"f	c #06060D",
"g	c #06060E",
"h	c #070710",
"i	c #14141F",
"                        ",
"                        ",
"                        ",
"           ...........+ ",
"          @++++++++++++#",
"          $++++++++%&*+=",
"          $++++++++-;>+=",
" ,,,,,,,,'$+++++++++)!+=",
"~++++++++'$++++++++++++=",
"~++++++++'$++++{]^+++++=",
"~++++++++'$++++/(_+++++=",
"~++++++++'$++++:<[+++++=",
"~+++++}|+'$++++++++++++=",
"~+++++123'$456+++++++++=",
"~+++++784'$90a+++++++++=",
"~++++++++'$bcd+++++++++=",
"~+++++++++e++++++++++++ ",
"~++++++++fgff#          ",
"~++++++++++++h          ",
"i++++++++++++h          ",
" ffffffffffff           ",
"                        ",
"                        ",
"                        "};
