/* XPM */
static char * tb_yes_xpm[] = {
"24 24 21 1",
" 	c None",
".	c #000000",
"+	c #DCD0B8",
"@	c #8C8475",
"#	c #B0A693",
"$	c #A69D8B",
"%	c #8CA070",
"&	c #7E8F67",
"*	c #70695D",
"=	c #B7C4A6",
"-	c #9DAE85",
";	c #ABBA97",
">	c #919F7D",
",	c #908878",
"'	c #96A681",
")	c #677559",
"!	c #747E6D",
"~	c #726C5F",
"{	c #766F62",
"]	c #5C6854",
"^	c #56614F",
"                        ",
"                        ",
"                        ",
"                        ",
"                        ",
"       ...              ",
"      .+@.              ",
"      .+#.              ",
"      .+#.              ",
"       .+.              ",
"       .+$.. ...        ",
"    .....+#+.%%&...     ",
"   .#++#*.#++.=-.%%.    ",
"    .....@#++.=-.%%.    ",
"   .#+#@*.#++.;%.>>.    ",
"   ......@##,.').!!.    ",
"    .+#@.~{~.]^^...     ",
"    ........ ...        ",
"                        ",
"                        ",
"                        ",
"                        ",
"                        ",
"                        "};
