#define tick_width 16
#define tick_height 16
static char tick_bits[] = {
   0x00, 0x00, 0x00, 0x30, 0x00, 0x38, 0x00, 0x1c, 0x00, 0x0e, 0x00, 0x0e,
   0x00, 0x07, 0x00, 0x07, 0x90, 0x03, 0xb8, 0x03, 0xfc, 0x01, 0xf8, 0x01,
   0xf0, 0x00, 0xe0, 0x00, 0x40, 0x00, 0x00, 0x00};
