<?xml version="1.0" encoding="UTF-8" standalone="no"?>
<!-- Created with Inkscape (http://www.inkscape.org/) -->
<svg
   xmlns:svg="http://www.w3.org/2000/svg"
   xmlns="http://www.w3.org/2000/svg"
   xmlns:xlink="http://www.w3.org/1999/xlink"
   xmlns:inkscape="http://www.inkscape.org/namespaces/inkscape"
   version="1.0"
   width="48"
   height="48"
   id="svg3867">
  <defs
     id="defs3869">
    <linearGradient
       id="linearGradient5574">
      <stop
         id="stop5576"
         style="stop-color:#2d2d2d;stop-opacity:1"
         offset="0" />
      <stop
         id="stop5582"
         style="stop-color:#2d2d2d;stop-opacity:1"
         offset="0.22949311" />
      <stop
         id="stop5584"
         style="stop-color:#2d2d2d;stop-opacity:0"
         offset="0.27404752" />
      <stop
         id="stop5586"
         style="stop-color:#2d2d2d;stop-opacity:1"
         offset="0.55032194" />
      <stop
         id="stop5578"
         style="stop-color:#2d2d2d;stop-opacity:0"
         offset="1" />
    </linearGradient>
    <linearGradient
       id="linearGradient4956">
      <stop
         id="stop4958"
         style="stop-color:#415e6b;stop-opacity:1"
         offset="0" />
      <stop
         id="stop4960"
         style="stop-color:#1f2d34;stop-opacity:1"
         offset="1" />
    </linearGradient>
    <linearGradient
       id="linearGradient4942">
      <stop
         id="stop4944"
         style="stop-color:#5b7680;stop-opacity:1"
         offset="0" />
      <stop
         id="stop4946"
         style="stop-color:#d0d6d9;stop-opacity:1"
         offset="1" />
    </linearGradient>
    <linearGradient
       id="linearGradient3397">
      <stop
         id="stop3399"
         style="stop-color:#19aeff;stop-opacity:1"
         offset="0" />
      <stop
         id="stop3401"
         style="stop-color:#d9f2ff;stop-opacity:1"
         offset="1" />
    </linearGradient>
    <filter
       id="filter5542"
       x="-0.052600682"
       width="1.1052014"
       y="-0.49237102"
       height="1.984742">
      <feGaussianBlur
         inkscape:collect="always"
         stdDeviation="1.0154634"
         id="feGaussianBlur5544" />
    </filter>
    <linearGradient
       x1="4.7981"
       y1="44"
       x2="46.176292"
       y2="43.403805"
       id="linearGradient5580"
       xlink:href="#linearGradient5574"
       gradientUnits="userSpaceOnUse" />
    <linearGradient
       x1="5.6153846"
       y1="14.10428"
       x2="20.605814"
       y2="10.192306"
       id="linearGradient2558"
       xlink:href="#linearGradient3397"
       gradientUnits="userSpaceOnUse"
       gradientTransform="matrix(0,-2.6,-2.6,0,51.096381,52.596875)" />
    <linearGradient
       x1="138.24002"
       y1="39.981628"
       x2="104.68142"
       y2="3.6875"
       id="linearGradient2582"
       xlink:href="#linearGradient4942"
       gradientUnits="userSpaceOnUse"
       gradientTransform="translate(-95.700489,0)" />
    <linearGradient
       x1="143.65625"
       y1="2.9375"
       x2="103.48888"
       y2="41.017391"
       id="linearGradient2585"
       xlink:href="#linearGradient4956"
       gradientUnits="userSpaceOnUse"
       gradientTransform="translate(-95.700489,0)" />
  </defs>
  <path
     d="M 46.138718,43.403805 C 46.139512,44.770707 36.879242,45.878851 25.455845,45.878851 C 14.032448,45.878851 4.7721778,44.770707 4.7729721,43.403805 C 4.7721778,42.036903 14.032448,40.928759 25.455845,40.928759 C 36.879242,40.928759 46.139512,42.036903 46.138718,43.403805 L 46.138718,43.403805 z"
     transform="matrix(1.1085884,0,-0.5542941,1,21.044031,0)"
     id="path5548"
     style="opacity:0.51173712;fill:url(#linearGradient5580);fill-opacity:1;fill-rule:evenodd;stroke:none;stroke-width:1.5;stroke-linecap:round;stroke-linejoin:round;stroke-miterlimit:4;stroke-dasharray:none;stroke-dashoffset:1;stroke-opacity:1;filter:url(#filter5542)" />
  <path
     d="M 30.205761,3.6875 L 28.080761,5 L 14.174511,18.90625 L 14.205761,5.6875 L 6.2057607,5.6875 L 4.0807607,7 L 4.0807607,41 L 12.080761,41 L 14.205761,39.6875 L 14.174511,29.09375 L 28.080761,43 L 30.205761,41.6875 L 30.205761,34 L 45.112011,34 L 47.205761,32.6875 L 47.205761,12.6875 L 30.205761,12.6875 L 30.205761,3.6875 z"
     id="path5043"
     style="fill:none;fill-opacity:1;fill-rule:evenodd;stroke:url(#linearGradient2585);stroke-width:1.5;stroke-linecap:butt;stroke-linejoin:miter;stroke-opacity:1" />
  <path
     d="M 30.205761,3.6875 L 28.080761,5 L 14.174511,18.90625 L 14.205761,5.6875 L 6.2057607,5.6875 L 4.0807607,7 L 4.0807607,41 L 12.080761,41 L 14.205761,39.6875 L 14.174511,29.09375 L 28.080761,43 L 30.205761,41.6875 L 30.205761,34 L 45.112011,34 L 47.205761,32.6875 L 47.205761,12.6875 L 30.205761,12.6875 L 30.205761,3.6875 z"
     id="path5030"
     style="fill:url(#linearGradient2582);fill-opacity:1;fill-rule:evenodd;stroke:none;stroke-width:1px;stroke-linecap:butt;stroke-linejoin:miter;stroke-opacity:1" />
  <path
     d="M 45.096381,33.996875 L 45.096381,13.996875 L 28.096381,13.996875 L 28.096381,4.996875 L 12.065131,21.028125 L 12.096381,6.996875 L 4.0963807,6.996875 L 4.0963807,40.996875 L 12.096381,40.996875 L 12.065131,26.965625 L 28.096381,42.996875 L 28.096381,33.996875 L 45.096381,33.996875 z"
     id="path5006"
     style="fill:#ffffff;fill-rule:evenodd;stroke:none;stroke-width:1px;stroke-linecap:butt;stroke-linejoin:miter;stroke-opacity:1" />
  <path
     d="M 6.0807607,9 L 6.0807607,39 L 10.080761,39 L 10.080761,9 L 6.0807607,9 z M 26.080761,10 L 12.080761,24 L 26.080761,38 L 26.080761,32 L 43.112011,32 L 43.112011,16 L 26.080761,16 L 26.080761,10 z"
     id="path5008"
     style="fill:url(#linearGradient2558);fill-opacity:1;fill-rule:evenodd;stroke:none;stroke-width:1px;stroke-linecap:butt;stroke-linejoin:miter;stroke-opacity:1" />
</svg>
